<?xml version="1.0" encoding="UTF-8" standalone="no"?>
<!-- Created with Inkscape (http://www.inkscape.org/) -->

<svg
   xmlns:dc="http://purl.org/dc/elements/1.1/"
   xmlns:cc="http://creativecommons.org/ns#"
   xmlns:rdf="http://www.w3.org/1999/02/22-rdf-syntax-ns#"
   xmlns:svg="http://www.w3.org/2000/svg"
   xmlns="http://www.w3.org/2000/svg"
   xmlns:sodipodi="http://sodipodi.sourceforge.net/DTD/sodipodi-0.dtd"
   xmlns:inkscape="http://www.inkscape.org/namespaces/inkscape"
   width="210mm"
   height="297mm"
   viewBox="0 0 744.09448819 1052.3622047"
   id="svg2"
   version="1.1"
   inkscape:version="0.91 r13725"
   sodipodi:docname="band.svg">
  <defs
     id="defs4">
    <clipPath
       id="clipPath4238"
       clipPathUnits="userSpaceOnUse">
      <path
         inkscape:connector-curvature="0"
         id="path4240"
         d="m 162.473,478.309 191.403,0 0,171.119 -191.403,0 0,-171.119 z" />
    </clipPath>
  </defs>
  <sodipodi:namedview
     id="base"
     pagecolor="#ffffff"
     bordercolor="#666666"
     borderopacity="1.0"
     inkscape:pageopacity="0.0"
     inkscape:pageshadow="2"
     inkscape:zoom="1.5806452"
     inkscape:cx="412.85714"
     inkscape:cy="580"
     inkscape:document-units="px"
     inkscape:current-layer="layer1"
     showgrid="false"
     inkscape:window-width="1920"
     inkscape:window-height="1022"
     inkscape:window-x="-9"
     inkscape:window-y="-9"
     inkscape:window-maximized="1" />
  <metadata
     id="metadata7">
    <rdf:RDF>
      <cc:Work
         rdf:about="">
        <dc:format>image/svg+xml</dc:format>
        <dc:type
           rdf:resource="http://purl.org/dc/dcmitype/StillImage" />
        <dc:title></dc:title>
      </cc:Work>
    </rdf:RDF>
  </metadata>
  <g
     inkscape:label="Vrstva 1"
     inkscape:groupmode="layer"
     id="layer1">
    <path
       d="m 273.55025,454.30222 c 40.28125,-0.1225 71.94875,-38.845 108.50375,-52.0075 45.15375,-16.9275 76.995,17.105 113.0275,37.8625"
       style="fill:none;stroke:#000000;stroke-width:0.86499995;stroke-linecap:round;stroke-linejoin:round;stroke-miterlimit:10;stroke-dasharray:none;stroke-opacity:1"
       id="path4166"
       inkscape:connector-curvature="0" />
    <path
       d="m 273.55025,575.39597 221.53125,0 m -221.53125,0 0,4.14625 m 44.30625,-4.14625 0,4.14625 m 44.30625,-4.14625 0,4.14625 m 44.30625,-4.14625 0,4.14625 m 44.30625,-4.14625 0,4.14625 m 44.30625,-4.14625 0,4.14625"
       style="fill:none;stroke:#000000;stroke-width:0.43375;stroke-linecap:round;stroke-linejoin:round;stroke-miterlimit:10;stroke-dasharray:none;stroke-opacity:1"
       id="path4168"
       inkscape:connector-curvature="0" />
    <path
       d="m 271.6815,587.98722 c 0,1.2175 -0.31875,1.9525 -1.0175,1.9525 -0.7,0 -1.0175,-0.735 -1.0175,-1.9525 0,-1.21875 0.3175,-1.9525 1.0175,-1.9525 0.69875,0 1.0175,0.73375 1.0175,1.9525 m 0.65,0 c 0,-1.01125 -0.27,-2.5 -1.6675,-2.5 -1.39875,0 -1.66875,1.48875 -1.66875,2.5 0,1.01 0.27,2.49875 1.66875,2.49875 1.3975,0 1.6675,-1.48875 1.6675,-2.49875"
       style="fill:#000000;fill-opacity:1;fill-rule:nonzero;stroke:none"
       id="path4170"
       inkscape:connector-curvature="0" />
    <path
       d="m 273.55025,590.35472 0,-0.735"
       style="fill:none;stroke:#000000;stroke-width:0.71875;stroke-linecap:butt;stroke-linejoin:miter;stroke-miterlimit:10;stroke-dasharray:none;stroke-opacity:1"
       id="path4172"
       inkscape:connector-curvature="0" />
    <path
       d="m 277.45525,587.98722 c 0,1.2175 -0.31875,1.9525 -1.01875,1.9525 -0.69875,0 -1.0175,-0.735 -1.0175,-1.9525 0,-1.21875 0.31875,-1.9525 1.0175,-1.9525 0.7,0 1.01875,0.73375 1.01875,1.9525 m 0.65,0 c 0,-1.01125 -0.27,-2.5 -1.66875,-2.5 -1.3975,0 -1.6675,1.48875 -1.6675,2.5 0,1.01 0.27,2.49875 1.6675,2.49875 1.39875,0 1.66875,-1.48875 1.66875,-2.49875"
       style="fill:#000000;fill-opacity:1;fill-rule:nonzero;stroke:none"
       id="path4174"
       inkscape:connector-curvature="0" />
    <path
       d="m 315.9865,587.98722 c 0,1.2175 -0.3175,1.9525 -1.0175,1.9525 -0.69875,0 -1.0175,-0.735 -1.0175,-1.9525 0,-1.21875 0.31875,-1.9525 1.0175,-1.9525 0.7,0 1.0175,0.73375 1.0175,1.9525 m 0.65125,0 c 0,-1.01125 -0.27,-2.5 -1.66875,-2.5 -1.3975,0 -1.6675,1.48875 -1.6675,2.5 0,1.01 0.27,2.49875 1.6675,2.49875 1.39875,0 1.66875,-1.48875 1.66875,-2.49875"
       style="fill:#000000;fill-opacity:1;fill-rule:nonzero;stroke:none"
       id="path4176"
       inkscape:connector-curvature="0" />
    <path
       d="m 317.8565,590.35472 0,-0.735"
       style="fill:none;stroke:#000000;stroke-width:0.71999997;stroke-linecap:butt;stroke-linejoin:miter;stroke-miterlimit:10;stroke-dasharray:none;stroke-opacity:1"
       id="path4178"
       inkscape:connector-curvature="0" />
    <path
       d="m 319.7315,587.23222 c 0.0225,-0.34 0.0625,-1.1975 0.98375,-1.1975 0.71375,0 0.9625,0.49125 0.9625,0.88 0,0.63625 -0.37375,0.8375 -0.89375,1.135 l -0.6425,0.3725 c -0.65125,0.3825 -1.1075,0.9225 -1.1425,1.9325 l 3.33,0 0,-0.575 -2.645,0 c 0.0275,-0.1875 0.1725,-0.5675 0.8375,-0.935 l 0.505,-0.27625 c 0.7275,-0.3875 1.3025,-0.75375 1.3025,-1.62625 0,-0.9075 -0.68,-1.455 -1.52375,-1.455 -0.52625,0 -1.68125,0.16 -1.68125,1.745 l 0.6075,0"
       style="fill:#000000;fill-opacity:1;fill-rule:nonzero;stroke:none"
       id="path4180"
       inkscape:connector-curvature="0" />
    <path
       d="m 360.29275,587.98722 c 0,1.2175 -0.3175,1.9525 -1.0175,1.9525 -0.7,0 -1.0175,-0.735 -1.0175,-1.9525 0,-1.21875 0.3175,-1.9525 1.0175,-1.9525 0.7,0 1.0175,0.73375 1.0175,1.9525 m 0.65125,0 c 0,-1.01125 -0.27,-2.5 -1.66875,-2.5 -1.3975,0 -1.6675,1.48875 -1.6675,2.5 0,1.01 0.27,2.49875 1.6675,2.49875 1.39875,0 1.66875,-1.48875 1.66875,-2.49875"
       style="fill:#000000;fill-opacity:1;fill-rule:nonzero;stroke:none"
       id="path4182"
       inkscape:connector-curvature="0" />
    <path
       d="m 362.16275,590.35472 0,-0.735"
       style="fill:none;stroke:#000000;stroke-width:0.71999997;stroke-linecap:butt;stroke-linejoin:miter;stroke-miterlimit:10;stroke-dasharray:none;stroke-opacity:1"
       id="path4184"
       inkscape:connector-curvature="0" />
    <path
       d="m 366.74525,589.16972 0,-0.525 -0.7125,0 0,-3.1575 -0.50625,0 -2.22875,3.0875 0,0.595 2.125,0 0,1.185 0.61,0 0,-1.185 0.7125,0 m -1.33625,-2.73375 0.0138,0 0,2.20875 -1.565,0 1.55125,-2.20875"
       style="fill:#000000;fill-opacity:1;fill-rule:nonzero;stroke:none"
       id="path4186"
       inkscape:connector-curvature="0" />
    <path
       d="m 404.599,587.98722 c 0,1.2175 -0.31875,1.9525 -1.0175,1.9525 -0.69875,0 -1.0175,-0.735 -1.0175,-1.9525 0,-1.21875 0.31875,-1.9525 1.0175,-1.9525 0.69875,0 1.0175,0.73375 1.0175,1.9525 m 0.65125,0 c 0,-1.01125 -0.27,-2.5 -1.66875,-2.5 -1.39875,0 -1.66875,1.48875 -1.66875,2.5 0,1.01 0.27,2.49875 1.66875,2.49875 1.39875,0 1.66875,-1.48875 1.66875,-2.49875"
       style="fill:#000000;fill-opacity:1;fill-rule:nonzero;stroke:none"
       id="path4188"
       inkscape:connector-curvature="0" />
    <path
       d="m 406.46775,590.35472 0,-0.735"
       style="fill:none;stroke:#000000;stroke-width:0.71999997;stroke-linecap:butt;stroke-linejoin:miter;stroke-miterlimit:10;stroke-dasharray:none;stroke-opacity:1"
       id="path4190"
       inkscape:connector-curvature="0" />
    <path
       d="m 410.91275,586.78222 c -0.0625,-0.99 -0.8575,-1.295 -1.42,-1.295 -1.4525,0 -1.8,1.5375 -1.8,2.60375 0,0.63625 0.0838,1.23125 0.375,1.68875 0.345,0.54 0.87875,0.70625 1.2525,0.70625 0.685,0 0.97625,-0.18625 1.2325,-0.47125 0.3325,-0.36 0.46375,-0.72 0.46375,-1.2175 0,-1.1625 -0.92875,-1.54375 -1.52375,-1.54375 -0.665,0 -1.0025,0.33125 -1.155,0.595 l -0.015,-0.0138 c 0,-0.5125 0.2025,-1.8 1.1575,-1.8 0.525,0 0.76,0.31875 0.8375,0.7475 l 0.595,0 m -2.50625,2.0775 c 0,-0.575 0.32625,-1.06 0.99625,-1.06 0.755,0 0.98375,0.595 0.98375,1.025 0,0.6575 -0.37375,1.115 -0.95625,1.115 -0.7125,0 -1.02375,-0.56125 -1.02375,-1.08"
       style="fill:#000000;fill-opacity:1;fill-rule:nonzero;stroke:none"
       id="path4192"
       inkscape:connector-curvature="0" />
    <path
       d="m 448.90525,587.98722 c 0,1.2175 -0.31875,1.9525 -1.01875,1.9525 -0.6975,0 -1.0175,-0.735 -1.0175,-1.9525 0,-1.21875 0.32,-1.9525 1.0175,-1.9525 0.7,0 1.01875,0.73375 1.01875,1.9525 m 0.65,0 c 0,-1.01125 -0.27,-2.5 -1.66875,-2.5 -1.3975,0 -1.6675,1.48875 -1.6675,2.5 0,1.01 0.27,2.49875 1.6675,2.49875 1.39875,0 1.66875,-1.48875 1.66875,-2.49875"
       style="fill:#000000;fill-opacity:1;fill-rule:nonzero;stroke:none"
       id="path4194"
       inkscape:connector-curvature="0" />
    <path
       d="m 450.774,590.35472 0,-0.735"
       style="fill:none;stroke:#000000;stroke-width:0.71999997;stroke-linecap:butt;stroke-linejoin:miter;stroke-miterlimit:10;stroke-dasharray:none;stroke-opacity:1"
       id="path4196"
       inkscape:connector-curvature="0" />
    <path
       d="m 455.14275,586.74097 c 0,-0.5675 -0.4225,-1.25375 -1.5025,-1.25375 -1.16375,0 -1.475,0.83125 -1.475,1.3375 0,0.45625 0.2425,0.78875 0.6575,0.9475 -0.51125,0.2075 -0.82375,0.58875 -0.82375,1.18375 0,0.23625 0,0.76125 0.49875,1.15625 0.3875,0.305 0.9,0.37375 1.17,0.37375 1.14875,0 1.6475,-0.75375 1.6475,-1.53625 0,-0.3675 -0.13875,-0.9075 -0.79625,-1.185 0.215,-0.11 0.62375,-0.325 0.62375,-1.02375 m -1.48875,1.32875 c 0.55375,0 1.01125,0.29125 1.01125,0.94875 0,0.76125 -0.53375,0.92125 -0.97625,0.92125 -0.845,0 -1.03875,-0.5825 -1.03875,-0.97 0,-0.45 0.31875,-0.9 1.00375,-0.9 m -0.007,-0.525 c -0.4425,0 -0.85125,-0.285 -0.85125,-0.74875 0,-0.31125 0.16,-0.76125 0.81,-0.76125 0.71375,0 0.9075,0.43 0.9075,0.7275 0,0.4425 -0.34,0.7825 -0.86625,0.7825"
       style="fill:#000000;fill-opacity:1;fill-rule:nonzero;stroke:none"
       id="path4198"
       inkscape:connector-curvature="0" />
    <path
       d="m 492.754,585.48722 -0.4775,0 c -0.195,0.7975 -0.52,0.8725 -1.30875,0.9275 l 0,0.485 1.13625,0 0,3.455 0.65,0 0,-4.8675"
       style="fill:#000000;fill-opacity:1;fill-rule:nonzero;stroke:none"
       id="path4200"
       inkscape:connector-curvature="0" />
    <path
       d="m 495.08025,590.35472 0,-0.735"
       style="fill:none;stroke:#000000;stroke-width:0.71875;stroke-linecap:butt;stroke-linejoin:miter;stroke-miterlimit:10;stroke-dasharray:none;stroke-opacity:1"
       id="path4202"
       inkscape:connector-curvature="0" />
    <path
       d="m 498.984,587.98722 c 0,1.2175 -0.3175,1.9525 -1.0175,1.9525 -0.7,0 -1.0175,-0.735 -1.0175,-1.9525 0,-1.21875 0.3175,-1.9525 1.0175,-1.9525 0.7,0 1.0175,0.73375 1.0175,1.9525 m 0.65125,0 c 0,-1.01125 -0.27,-2.5 -1.66875,-2.5 -1.3975,0 -1.6675,1.48875 -1.6675,2.5 0,1.01 0.27,2.49875 1.6675,2.49875 1.39875,0 1.66875,-1.48875 1.66875,-2.49875"
       style="fill:#000000;fill-opacity:1;fill-rule:nonzero;stroke:none"
       id="path4204"
       inkscape:connector-curvature="0" />
    <path
       d="m 264.689,567.47472 0,-198.0525 m 0,198.0525 -4.15375,0 m 4.15375,-28.29125 -4.15375,0 m 4.15375,-28.29125 -4.15375,0 m 4.15375,-28.2975 -4.15375,0 m 4.15375,-28.2925 -4.15375,0 m 4.15375,-28.2975 -4.15375,0 m 4.15375,-28.29125 -4.15375,0 m 4.15375,-28.29125 -4.15375,0"
       style="fill:none;stroke:#000000;stroke-width:0.43375;stroke-linecap:round;stroke-linejoin:round;stroke-miterlimit:10;stroke-dasharray:none;stroke-opacity:1"
       id="path4206"
       inkscape:connector-curvature="0" />
    <path
       d="m 252.9715,571.14972 0,-3.5025"
       style="fill:none;stroke:#000000;stroke-width:0.505;stroke-linecap:butt;stroke-linejoin:miter;stroke-miterlimit:10;stroke-dasharray:none;stroke-opacity:1"
       id="path4208"
       inkscape:connector-curvature="0" />
    <path
       d="m 252.4765,565.82597 c 0,-0.09 -0.007,-0.18625 -0.007,-0.27625 0,-0.415 0.0775,-1.135 0.89375,-1.135 0.56125,0 0.94125,0.435 0.94125,1.0575 0,0.9075 -0.61625,1.0175 -1.0725,1.04 l 0,0.63 c 0.56,-0.0425 1.12125,-0.1875 1.405,-0.7275 0.125,-0.235 0.215,-0.54 0.215,-0.9 0,-1.24 -0.76875,-1.7525 -1.565,-1.7525 -0.65,0 -0.9825,0.34 -1.135,0.81 l -0.015,0 c -0.0825,-0.2625 -0.38,-0.6225 -1.0025,-0.6225 -0.74125,0 -1.28125,0.56125 -1.28125,1.5025 0,1.28 0.87875,1.5725 1.5925,1.5725 l 0,-0.59625 c -0.33875,-0.0288 -1.04625,-0.0838 -1.04625,-0.94875 0,-0.7275 0.4775,-0.9 0.76875,-0.9 0.60875,0 0.79625,0.4575 0.79625,0.9275 0,0.105 -0.007,0.215 -0.0137,0.31875 l 0.52625,0"
       style="fill:#000000;fill-opacity:1;fill-rule:nonzero;stroke:none"
       id="path4210"
       inkscape:connector-curvature="0" />
    <path
       d="m 252.9715,542.85597 0,-3.5025"
       style="fill:none;stroke:#000000;stroke-width:0.505;stroke-linecap:butt;stroke-linejoin:miter;stroke-miterlimit:10;stroke-dasharray:none;stroke-opacity:1"
       id="path4212"
       inkscape:connector-curvature="0" />
    <path
       d="m 251.5965,538.16847 c -0.33875,-0.02 -1.1975,-0.0613 -1.1975,-0.9825 0,-0.7125 0.4925,-0.9625 0.88,-0.9625 0.6375,0 0.8375,0.375 1.135,0.89375 l 0.37375,0.64375 c 0.38125,0.65 0.92125,1.1075 1.93125,1.1425 l 0,-3.33 -0.57375,0 0,2.645 c -0.1875,-0.0275 -0.56875,-0.1725 -0.935,-0.8375 l -0.27625,-0.505 c -0.3875,-0.7275 -0.755,-1.3025 -1.6275,-1.3025 -0.9075,0 -1.45375,0.67875 -1.45375,1.5225 0,0.5275 0.15875,1.6825 1.74375,1.6825 l 0,-0.61"
       style="fill:#000000;fill-opacity:1;fill-rule:nonzero;stroke:none"
       id="path4214"
       inkscape:connector-curvature="0" />
    <path
       d="m 252.9715,514.56222 0,-3.5025"
       style="fill:none;stroke:#000000;stroke-width:0.505;stroke-linecap:butt;stroke-linejoin:miter;stroke-miterlimit:10;stroke-dasharray:none;stroke-opacity:1"
       id="path4216"
       inkscape:connector-curvature="0" />
    <path
       d="m 249.85275,508.30472 0,0.4775 c 0.79625,0.19375 0.8725,0.52 0.9275,1.3075 l 0.485,0 0,-1.135 3.45375,0 0,-0.65 -4.86625,0"
       style="fill:#000000;fill-opacity:1;fill-rule:nonzero;stroke:none"
       id="path4218"
       inkscape:connector-curvature="0" />
    <path
       d="m 252.3515,481.57597 c 1.21875,0 1.9525,0.3175 1.9525,1.0175 0,0.7 -0.73375,1.0175 -1.9525,1.0175 -1.2175,0 -1.9525,-0.3175 -1.9525,-1.0175 0,-0.7 0.735,-1.0175 1.9525,-1.0175 m 0,-0.65 c -1.01,0 -2.49875,0.27 -2.49875,1.6675 0,1.3975 1.48875,1.6675 2.49875,1.6675 1.01125,0 2.5,-0.27 2.5,-1.6675 0,-1.3975 -1.48875,-1.6675 -2.5,-1.6675"
       style="fill:#000000;fill-opacity:1;fill-rule:nonzero;stroke:none"
       id="path4220"
       inkscape:connector-curvature="0" />
    <path
       d="m 249.85275,453.73972 0,0.4775 c 0.79625,0.1925 0.8725,0.51875 0.9275,1.3075 l 0.485,0 0,-1.135 3.45375,0 0,-0.65 -4.86625,0"
       style="fill:#000000;fill-opacity:1;fill-rule:nonzero;stroke:none"
       id="path4222"
       inkscape:connector-curvature="0" />
    <path
       d="m 251.5965,427.01597 c -0.33875,-0.02 -1.1975,-0.0613 -1.1975,-0.9825 0,-0.7125 0.4925,-0.9625 0.88,-0.9625 0.6375,0 0.8375,0.375 1.135,0.89375 l 0.37375,0.64375 c 0.38125,0.65 0.92125,1.1075 1.93125,1.1425 l 0,-3.33 -0.57375,0 0,2.645 c -0.1875,-0.0275 -0.56875,-0.1725 -0.935,-0.8375 l -0.27625,-0.505 c -0.3875,-0.7275 -0.755,-1.3025 -1.6275,-1.3025 -0.9075,0 -1.45375,0.6775 -1.45375,1.5225 0,0.5275 0.15875,1.6825 1.74375,1.6825 l 0,-0.61"
       style="fill:#000000;fill-opacity:1;fill-rule:nonzero;stroke:none"
       id="path4224"
       inkscape:connector-curvature="0" />
    <path
       d="m 252.4765,398.08722 c 0,-0.09 -0.007,-0.1875 -0.007,-0.2775 0,-0.415 0.0775,-1.135 0.89375,-1.135 0.56125,0 0.94125,0.435 0.94125,1.06 0,0.905 -0.61625,1.0175 -1.0725,1.0375 l 0,0.63 c 0.56,-0.0425 1.12125,-0.1875 1.405,-0.7275 0.125,-0.235 0.215,-0.54 0.215,-0.9 0,-1.2375 -0.76875,-1.75 -1.565,-1.75 -0.65,0 -0.9825,0.3375 -1.135,0.81 l -0.015,0 c -0.0825,-0.265 -0.38,-0.625 -1.0025,-0.625 -0.74125,0 -1.28125,0.5625 -1.28125,1.5025 0,1.2825 0.87875,1.5725 1.5925,1.5725 l 0,-0.595 c -0.33875,-0.0275 -1.04625,-0.0837 -1.04625,-0.95 0,-0.725 0.4775,-0.9 0.76875,-0.9 0.60875,0 0.79625,0.4575 0.79625,0.9275 0,0.105 -0.007,0.215 -0.0137,0.32 l 0.52625,0"
       style="fill:#000000;fill-opacity:1;fill-rule:nonzero;stroke:none"
       id="path4226"
       inkscape:connector-curvature="0" />
    <path
       d="m 253.53525,367.72347 -0.52625,0 0,0.7125 -3.15625,0 0,0.505 3.0875,2.23 0.595,0 0,-2.125 1.18375,0 0,-0.61 -1.18375,0 0,-0.7125 m -2.73375,1.335 0,-0.0125 2.2075,0 0,1.565 -2.2075,-1.5525"
       style="fill:#000000;fill-opacity:1;fill-rule:nonzero;stroke:none"
       id="path4228"
       inkscape:connector-curvature="0" />
    <path
       d="m 264.689,575.39597 239.25375,0 0,-213.905 -239.25375,0 0,213.905 z"
       style="fill:none;stroke:#000000;stroke-width:0.43375;stroke-linecap:round;stroke-linejoin:round;stroke-miterlimit:10;stroke-dasharray:none;stroke-opacity:1"
       id="path4230"
       inkscape:connector-curvature="0" />
    <path
       d="m 273.55025,454.30222 c 40.28125,-0.1225 71.94875,-38.845 108.50375,-52.0075 45.15375,-16.9275 76.995,17.105 113.0275,37.8625 l 0,17.93625 c -85.62875,-23.8275 -135.91375,72.83875 -221.53125,49.00125"
       style="fill:#d3d3d3;fill-opacity:1;fill-rule:evenodd;stroke:none"
       id="path4232"
       inkscape:connector-curvature="0" />
    <g
       id="g4234"
       transform="matrix(1.25,0,0,-1.25,61.597746,1173.2822)">
      <g
         id="g4236"
         clip-path="url(#clipPath4238)">
        <path
           d="m 169.562,532.95 c 68.494,-19.07 108.722,58.263 177.225,39.201 m -177.225,-32.8 c 33.768,8.709 52.929,9.142 86.803,0.434 35.779,-9.265 54.528,-9.729 90.422,-0.434 m -177.225,25.286 c 33.1,-5.969 59.341,23.605 86.803,36.992 36.969,18.772 60.183,-1.309 90.422,-20.985 m -177.225,-5.46 c 32.225,0.098 57.559,31.076 86.803,41.606 36.123,13.542 61.596,-13.684 90.422,-30.29"
           style="fill:none;stroke:#000000;stroke-width:0.69199997;stroke-linecap:round;stroke-linejoin:round;stroke-miterlimit:10;stroke-dasharray:none;stroke-opacity:1"
           id="path4242"
           inkscape:connector-curvature="0" />
        <path
           d="m 240.452,444.416 0,98.927"
           style="fill:none;stroke:#000000;stroke-width:0.347;stroke-linecap:round;stroke-linejoin:round;stroke-miterlimit:10;stroke-dasharray:1.384, 2.308;stroke-dashoffset:0;stroke-opacity:1"
           id="path4244"
           inkscape:connector-curvature="0" />
      </g>
    </g>
    <flowRoot
       xml:space="preserve"
       id="flowRoot5923"
       style="font-style:normal;font-weight:normal;font-size:10px;line-height:125%;font-family:sans-serif;letter-spacing:0px;word-spacing:0px;fill:#000000;fill-opacity:1;stroke:none;stroke-width:1px;stroke-linecap:butt;stroke-linejoin:miter;stroke-opacity:1"
       transform="translate(15.183673,-12.020408)"><flowRegion
         id="flowRegion5925"><rect
           id="rect5927"
           width="41.122448"
           height="31"
           x="363.14285"
           y="602.5459" /></flowRegion><flowPara
         id="flowPara5929"
         style="font-size:16.25px;-inkscape-font-specification:serif;font-family:serif;font-weight:normal;font-style:normal;font-stretch:normal;font-variant:normal">t</flowPara></flowRoot>    <text
       xml:space="preserve"
       style="font-style:normal;font-weight:normal;font-size:10px;line-height:125%;font-family:sans-serif;letter-spacing:0px;word-spacing:0px;fill:#000000;fill-opacity:1;stroke:none;stroke-width:1px;stroke-linecap:butt;stroke-linejoin:miter;stroke-opacity:1"
       x="-479.64056"
       y="235.84619"
       id="text5931"
       sodipodi:linespacing="125%"
       transform="matrix(0,-1,1,0,0,0)"><tspan
         sodipodi:role="line"
         id="tspan5933"
         x="-479.64056"
         y="235.84619"
         style="font-size:17.5px;-inkscape-font-specification:serif;font-family:serif;font-weight:normal;font-style:normal;font-stretch:normal;font-variant:normal">x(t)</tspan></text>
    <text
       xml:space="preserve"
       style="font-style:normal;font-weight:normal;font-size:10px;line-height:125%;font-family:sans-serif;letter-spacing:0px;word-spacing:0px;fill:#000000;fill-opacity:1;stroke:none;stroke-width:1px;stroke-linecap:butt;stroke-linejoin:miter;stroke-opacity:1"
       x="318.85715"
       y="419.70914"
       id="text5935"
       sodipodi:linespacing="125%"><tspan
         sodipodi:role="line"
         id="tspan5937"
         x="318.85715"
         y="419.70914"
         style="font-size:20px;-inkscape-font-specification:serif;font-family:serif;font-weight:normal;font-style:normal;font-stretch:normal;font-variant:normal">x</tspan></text>
    <text
       xml:space="preserve"
       style="font-style:normal;font-weight:normal;font-size:10px;line-height:125%;font-family:sans-serif;letter-spacing:0px;word-spacing:0px;fill:#000000;fill-opacity:1;stroke:none;stroke-width:1px;stroke-linecap:butt;stroke-linejoin:miter;stroke-opacity:1"
       x="153.10204"
       y="427.93362"
       id="text5941"
       sodipodi:linespacing="125%"><tspan
         sodipodi:role="line"
         id="tspan5943"
         x="153.10204"
         y="427.93362" /></text>
    <text
       xml:space="preserve"
       style="font-style:normal;font-weight:normal;font-size:64.99999762%;line-height:125%;font-family:sans-serif;letter-spacing:0px;word-spacing:0px;baseline-shift:sub;fill:#000000;fill-opacity:1;stroke:none;stroke-width:1px;stroke-linecap:butt;stroke-linejoin:miter;stroke-opacity:1"
       x="330.87753"
       y="416.5459"
       id="text5945"
       sodipodi:linespacing="125%"><tspan
         sodipodi:role="line"
         id="tspan5947"
         x="330.87753"
         y="416.5459">1</tspan></text>
    <text
       xml:space="preserve"
       style="font-style:normal;font-weight:normal;font-size:10px;line-height:125%;font-family:sans-serif;letter-spacing:0px;word-spacing:0px;fill:#000000;fill-opacity:1;stroke:none;stroke-width:1px;stroke-linecap:butt;stroke-linejoin:miter;stroke-opacity:1"
       x="398.54224"
       y="432.30566"
       id="text5935-5"
       sodipodi:linespacing="125%"><tspan
         sodipodi:role="line"
         id="tspan5937-3"
         x="398.54224"
         y="432.30566"
         style="font-style:normal;font-variant:normal;font-weight:normal;font-stretch:normal;font-size:20px;font-family:serif;-inkscape-font-specification:serif">x</tspan></text>
    <text
       xml:space="preserve"
       style="font-style:normal;font-weight:normal;font-size:64.99999762%;line-height:125%;font-family:sans-serif;letter-spacing:0px;word-spacing:0px;baseline-shift:sub;fill:#000000;fill-opacity:1;stroke:none;stroke-width:1px;stroke-linecap:butt;stroke-linejoin:miter;stroke-opacity:1"
       x="410.56262"
       y="429.14243"
       id="text5945-3"
       sodipodi:linespacing="125%"><tspan
         sodipodi:role="line"
         id="tspan5947-8"
         x="410.56262"
         y="429.14243">2</tspan></text>
    <text
       xml:space="preserve"
       style="font-style:normal;font-weight:normal;font-size:10px;line-height:125%;font-family:sans-serif;letter-spacing:0px;word-spacing:0px;fill:#000000;fill-opacity:1;stroke:none;stroke-width:1px;stroke-linecap:butt;stroke-linejoin:miter;stroke-opacity:1"
       x="428.27698"
       y="475.95874"
       id="text5935-9"
       sodipodi:linespacing="125%"><tspan
         sodipodi:role="line"
         id="tspan5937-8"
         x="428.27698"
         y="475.95874"
         style="font-style:normal;font-variant:normal;font-weight:normal;font-stretch:normal;font-size:20px;font-family:serif;-inkscape-font-specification:serif">x</tspan></text>
    <text
       xml:space="preserve"
       style="font-style:normal;font-weight:normal;font-size:64.99999762%;line-height:125%;font-family:sans-serif;letter-spacing:0px;word-spacing:0px;baseline-shift:sub;fill:#000000;fill-opacity:1;stroke:none;stroke-width:1px;stroke-linecap:butt;stroke-linejoin:miter;stroke-opacity:1"
       x="440.29736"
       y="472.7955"
       id="text5945-9"
       sodipodi:linespacing="125%"><tspan
         sodipodi:role="line"
         id="tspan5947-5"
         x="440.29736"
         y="472.7955">3</tspan></text>
    <text
       xml:space="preserve"
       style="font-style:normal;font-weight:normal;font-size:10px;line-height:125%;font-family:sans-serif;letter-spacing:0px;word-spacing:0px;fill:#000000;fill-opacity:1;stroke:none;stroke-width:1px;stroke-linecap:butt;stroke-linejoin:miter;stroke-opacity:1"
       x="390.31778"
       y="520.24445"
       id="text5935-99"
       sodipodi:linespacing="125%"><tspan
         sodipodi:role="line"
         id="tspan5937-33"
         x="390.31778"
         y="520.24445"
         style="font-style:normal;font-variant:normal;font-weight:normal;font-stretch:normal;font-size:20px;font-family:serif;-inkscape-font-specification:serif">x</tspan></text>
    <text
       xml:space="preserve"
       style="font-style:normal;font-weight:normal;font-size:64.99999762%;line-height:125%;font-family:sans-serif;letter-spacing:0px;word-spacing:0px;baseline-shift:sub;fill:#000000;fill-opacity:1;stroke:none;stroke-width:1px;stroke-linecap:butt;stroke-linejoin:miter;stroke-opacity:1"
       x="402.33817"
       y="517.08124"
       id="text5945-4"
       sodipodi:linespacing="125%"><tspan
         sodipodi:role="line"
         id="tspan5947-80"
         x="402.33817"
         y="517.08124">4</tspan></text>
  </g>
</svg>
