<?xml version="1.0" encoding="utf-8"?>
<!-- Generator: Adobe Illustrator 13.0.0, SVG Export Plug-In . SVG Version: 6.00 Build 14948)  -->
<!DOCTYPE svg PUBLIC "-//W3C//DTD SVG 1.1//EN" "http://www.w3.org/Graphics/SVG/1.1/DTD/svg11.dtd">
<svg version="1.1" id="Layer_1" xmlns="http://www.w3.org/2000/svg" xmlns:xlink="http://www.w3.org/1999/xlink" x="0px" y="0px"
	 width="668.083px" height="364.21px" viewBox="0 0 668.083 364.21" enable-background="new 0 0 668.083 364.21"
	 xml:space="preserve">
<symbol  id="Arrow_25" viewBox="-22.851 -13.154 45.703 26.309">
	<polygon fill="none" points="-22.851,-13.154 22.852,-13.154 22.852,13.154 -22.851,13.154 	"/>
	<g>
		<polygon fill="#231F20" points="-22.851,-3.172 0.066,-3.172 0.066,-13.154 22.852,0.001 0.066,13.154 0.066,3.174 -22.851,3.174 
					"/>
	</g>
</symbol>
<symbol  id="Arrow_27" viewBox="-22.847 -13.155 45.693 26.311">
	<polygon fill="none" points="-22.847,-13.155 22.847,-13.155 22.847,13.155 -22.847,13.155 	"/>
	<g>
		<polygon fill="#231F20" points="-22.847,-9.518 0.073,-9.518 0.073,-13.155 22.847,0 0.073,13.155 0.073,9.521 -22.847,9.521 		
			"/>
	</g>
</symbol>
<text transform="matrix(1.0031 0 0 1 0 40.6616)"><tspan x="0" y="0" fill="#333366" font-family="'ArialMT'" font-size="17.9318">S</tspan><tspan x="11.961" y="0" fill="#333366" font-family="'ArialMT'" font-size="17.9318">u</tspan><tspan x="21.915" y="0" fill="#333366" font-family="'ArialMT'" font-size="17.9318">r</tspan><tspan x="27.887" y="0" fill="#333366" font-family="'ArialMT'" font-size="17.9318">o</tspan><tspan x="37.841" y="0" fill="#333366" font-family="'ArialMT'" font-size="17.9318">v</tspan><tspan x="46.808" y="0" fill="#333366" font-family="'ArialMT'" font-size="17.9318">é</tspan><tspan x="56.762" y="0" fill="#333366" font-family="'ArialMT'" font-size="17.9318"> </tspan></text>
<text transform="matrix(1.0031 0 0 1 13.4922 60.771)"><tspan x="0" y="0" fill="#333366" font-family="'ArialMT'" font-size="17.9318">d</tspan><tspan x="9.919" y="0" fill="#333366" font-family="'ArialMT'" font-size="17.9318">á</tspan><tspan x="19.874" y="0" fill="#333366" font-family="'ArialMT'" font-size="17.9318">t</tspan><tspan x="24.892" y="0" fill="#333366" font-family="'ArialMT'" font-size="17.9318">a</tspan></text>
<text transform="matrix(1.0031 0 0 1 261.5625 51.4976)"><tspan x="0" y="0" fill="#333366" font-family="'ArialMT'" font-size="17.9318">P</tspan><tspan x="11.961" y="0" fill="#333366" font-family="'ArialMT'" font-size="17.9318">o</tspan><tspan x="21.915" y="0" fill="#333366" font-family="'ArialMT'" font-size="17.9318">z</tspan><tspan x="30.881" y="0" fill="#333366" font-family="'ArialMT'" font-size="17.9318">o</tspan><tspan x="40.836" y="0" fill="#333366" font-family="'ArialMT'" font-size="17.9318">r</tspan><tspan x="46.808" y="0" fill="#333366" font-family="'ArialMT'" font-size="17.9318">o</tspan><tspan x="56.762" y="0" fill="#333366" font-family="'ArialMT'" font-size="17.9318">v</tspan><tspan x="65.729" y="0" fill="#333366" font-family="'ArialMT'" font-size="17.9318">a</tspan><tspan x="75.647" y="0" fill="#333366" font-family="'ArialMT'" font-size="17.9318">ni</tspan><tspan x="89.568" y="0" fill="#333366" font-family="'ArialMT'" font-size="17.9318">a</tspan></text>
<text transform="matrix(1.0031 0 0 1 268.7266 158.8179)"><tspan x="0" y="0" fill="#333366" font-family="'ArialMT'" font-size="17.9318">Pr</tspan><tspan x="17.932" y="0" fill="#333366" font-family="'ArialMT'" font-size="17.9318">e</tspan><tspan x="27.851" y="0" fill="#333366" font-family="'ArialMT'" font-size="17.9318">d</tspan><tspan x="37.806" y="0" fill="#333366" font-family="'ArialMT'" font-size="17.9318">po</tspan><tspan x="57.644" y="0" fill="#333366" font-family="'ArialMT'" font-size="17.9318">v</tspan><tspan x="66.61" y="0" fill="#333366" font-family="'ArialMT'" font-size="17.9318">e</tspan><tspan x="76.529" y="0" fill="#333366" font-family="'ArialMT'" font-size="17.9318">d</tspan><tspan x="86.484" y="0" fill="#333366" font-family="'ArialMT'" font-size="17.9318">e</tspan></text>
<text transform="matrix(1.0031 0 0 1 507.2715 196.7554)"><tspan x="0" y="0" fill="#FFFFFF" font-family="'ArialMT'" font-size="17.9318">Výs</tspan><tspan x="29.892" y="0" fill="#FFFFFF" font-family="'ArialMT'" font-size="17.9318">l</tspan><tspan x="33.858" y="0" fill="#FFFFFF" font-family="'ArialMT'" font-size="17.9318">e</tspan><tspan x="43.777" y="0" fill="#FFFFFF" font-family="'ArialMT'" font-size="17.9318">d</tspan><tspan x="53.732" y="0" fill="#FFFFFF" font-family="'ArialMT'" font-size="17.9318">o</tspan><tspan x="63.651" y="0" fill="#FFFFFF" font-family="'ArialMT'" font-size="17.9318">k</tspan></text>
<text transform="matrix(1.0031 0 0 1 503.7891 216.8726)"><tspan x="0" y="0" fill="#FFFFFF" font-family="'ArialMT'" font-size="17.9318">v</tspan><tspan x="8.966" y="0" fill="#FFFFFF" font-family="'ArialMT'" font-size="17.9318">e</tspan><tspan x="18.885" y="0" fill="#FFFFFF" font-family="'ArialMT'" font-size="17.9318">r</tspan><tspan x="24.857" y="0" fill="#FFFFFF" font-family="'ArialMT'" font-size="17.9318">i</tspan><tspan x="28.787" y="0" fill="#FFFFFF" font-family="'ArialMT'" font-size="17.9318">f</tspan><tspan x="33.804" y="0" fill="#FFFFFF" font-family="'ArialMT'" font-size="17.9318">i</tspan><tspan x="37.77" y="0" fill="#FFFFFF" font-family="'ArialMT'" font-size="17.9318">k</tspan><tspan x="46.736" y="0" fill="#FFFFFF" font-family="'ArialMT'" font-size="17.9318">á</tspan><tspan x="56.691" y="0" fill="#FFFFFF" font-family="'ArialMT'" font-size="17.9318">c</tspan><tspan x="65.657" y="0" fill="#FFFFFF" font-family="'ArialMT'" font-size="17.9318">i</tspan><tspan x="69.623" y="0" fill="#FFFFFF" font-family="'ArialMT'" font-size="17.9318">e</tspan></text>
<text transform="matrix(1.0031 0 0 1 577.1875 335.7788)"><tspan x="0" y="0" fill="#333366" font-family="'ArialMT'" font-size="17.9318">O</tspan><tspan x="13.966" y="0" fill="#333366" font-family="'ArialMT'" font-size="17.9318">b</tspan><tspan x="23.921" y="0" fill="#333366" font-family="'ArialMT'" font-size="17.9318">r</tspan><tspan x="29.892" y="0" fill="#333366" font-family="'ArialMT'" font-size="17.9318">á</tspan><tspan x="39.847" y="0" fill="#333366" font-family="'ArialMT'" font-size="17.9318">zk</tspan><tspan x="57.779" y="0" fill="#333366" font-family="'ArialMT'" font-size="17.9318">o</tspan><tspan x="67.698" y="0" fill="#333366" font-family="'ArialMT'" font-size="17.9318">vý </tspan></text>
<g>
	<text transform="matrix(1.0031 0 0 1 591.6797 354.8882)"><tspan x="0" y="0" fill="#333366" font-family="'ArialMT'" font-size="17.9318">výst</tspan><tspan x="31.88" y="0" fill="#333366" font-family="'ArialMT'" font-size="17.9318">u</tspan><tspan x="41.835" y="0" fill="#333366" font-family="'ArialMT'" font-size="17.9318">p</tspan></text>
</g>
<polygon fill-rule="evenodd" clip-rule="evenodd" fill="#FFFFFF" stroke="#000000" points="161.252,141.42 84.768,141.42 
	84.768,62.351 237.737,62.351 237.737,141.42 161.252,141.42 "/>
<text transform="matrix(1.0031 0 0 1 100.4063 97.5913)"><tspan x="0" y="0" fill="#333366" font-family="'Arial-BoldMT'" font-size="19.9368">EX</tspan><tspan x="26.556" y="0" fill="#333366" font-family="'Arial-BoldMT'" font-size="19.9368">T</tspan><tspan x="38.754" y="0" fill="#333366" font-family="'Arial-BoldMT'" font-size="19.9368">RAK</tspan><tspan x="82.126" y="0" fill="#333366" font-family="'Arial-BoldMT'" font-size="19.9368">C</tspan><tspan x="96.604" y="0" fill="#333366" font-family="'Arial-BoldMT'" font-size="19.9368">I</tspan><tspan x="102.083" y="0" fill="#333366" font-family="'Arial-BoldMT'" font-size="19.9368">A</tspan><tspan x="115.843" y="0" fill="#333366" font-family="'Arial-BoldMT'" font-size="19.9368"> </tspan></text>
<text transform="matrix(1.0031 0 0 1 140.625 120.2866)"><tspan x="0" y="0" fill="#333366" font-family="'Arial-BoldMT'" font-size="19.9368">DÁ</tspan><tspan x="28.915" y="0" fill="#333366" font-family="'Arial-BoldMT'" font-size="19.9368">T</tspan></text>
<text transform="matrix(1.0031 0 0 1 507.2715 196.7554)"><tspan x="0" y="0" fill="#333366" font-family="'ArialMT'" font-size="17.9318">Výs</tspan><tspan x="29.892" y="0" fill="#333366" font-family="'ArialMT'" font-size="17.9318">l</tspan><tspan x="33.858" y="0" fill="#333366" font-family="'ArialMT'" font-size="17.9318">e</tspan><tspan x="43.777" y="0" fill="#333366" font-family="'ArialMT'" font-size="17.9318">d</tspan><tspan x="53.732" y="0" fill="#333366" font-family="'ArialMT'" font-size="17.9318">o</tspan><tspan x="63.651" y="0" fill="#333366" font-family="'ArialMT'" font-size="17.9318">k</tspan></text>
<text transform="matrix(1.0031 0 0 1 503.7891 216.8726)"><tspan x="0" y="0" fill="#333366" font-family="'ArialMT'" font-size="17.9318">v</tspan><tspan x="8.966" y="0" fill="#333366" font-family="'ArialMT'" font-size="17.9318">e</tspan><tspan x="18.885" y="0" fill="#333366" font-family="'ArialMT'" font-size="17.9318">r</tspan><tspan x="24.857" y="0" fill="#333366" font-family="'ArialMT'" font-size="17.9318">i</tspan><tspan x="28.787" y="0" fill="#333366" font-family="'ArialMT'" font-size="17.9318">f</tspan><tspan x="33.804" y="0" fill="#333366" font-family="'ArialMT'" font-size="17.9318">i</tspan><tspan x="37.77" y="0" fill="#333366" font-family="'ArialMT'" font-size="17.9318">k</tspan><tspan x="46.736" y="0" fill="#333366" font-family="'ArialMT'" font-size="17.9318">á</tspan><tspan x="56.691" y="0" fill="#333366" font-family="'ArialMT'" font-size="17.9318">c</tspan><tspan x="65.657" y="0" fill="#333366" font-family="'ArialMT'" font-size="17.9318">i</tspan><tspan x="69.623" y="0" fill="#333366" font-family="'ArialMT'" font-size="17.9318">e</tspan></text>
<polygon fill-rule="evenodd" clip-rule="evenodd" fill="#FFFFFF" stroke="#000000" stroke-miterlimit="10" points="481.354,141.42 
	407.702,141.42 407.702,62.351 555.005,62.351 555.005,141.42 481.354,141.42 "/>
<text transform="matrix(1.0031 0 0 1 425.8906 97.2241)"><tspan x="0" y="0" fill="#333366" font-family="'Arial-BoldMT'" font-size="21.9136">V</tspan><tspan x="14.573" y="0" fill="#333366" font-family="'Arial-BoldMT'" font-size="21.9136">Ý</tspan><tspan x="29.189" y="0" fill="#333366" font-family="'Arial-BoldMT'" font-size="21.9136">PO</tspan><tspan x="60.762" y="0" fill="#333366" font-family="'Arial-BoldMT'" font-size="21.9136">Č</tspan><tspan x="76.521" y="0" fill="#333366" font-family="'Arial-BoldMT'" font-size="21.9136">ET </tspan></text>
<text transform="matrix(1.0031 0 0 1 426.2949 122.2241)"><tspan x="0" y="0" fill="#333366" font-family="'Arial-BoldMT'" font-size="21.9136">Š</tspan><tspan x="14.573" y="0" fill="#333366" font-family="'Arial-BoldMT'" font-size="21.9136" letter-spacing="-0.997">T</tspan><tspan x="26.293" y="0" fill="#333366" font-family="'Arial-BoldMT'" font-size="21.9136" letter-spacing="-0.997">A</tspan><tspan x="40.43" y="0" fill="#333366" font-family="'Arial-BoldMT'" font-size="21.9136">TI</tspan><tspan x="59.904" y="0" fill="#333366" font-family="'Arial-BoldMT'" font-size="21.9136">S</tspan><tspan x="74.477" y="0" fill="#333366" font-family="'Arial-BoldMT'" font-size="21.9136">T</tspan><tspan x="87.884" y="0" fill="#333366" font-family="'Arial-BoldMT'" font-size="21.9136">ÍK</tspan></text>
<polygon fill-rule="evenodd" clip-rule="evenodd" fill="#FFFFFF" stroke="#070707" points="481.354,322.151 407.702,322.151 
	407.702,243.081 555.005,243.081 555.005,322.151 481.354,322.151 "/>
<text transform="matrix(1.0031 0 0 1 411.7813 289.6616)"><tspan x="0" y="0" fill="#333366" font-family="'Arial-BoldMT'" font-size="19.9368">VI</tspan><tspan x="18.797" y="0" fill="#333366" font-family="'Arial-BoldMT'" font-size="19.9368">Z</tspan><tspan x="30.975" y="0" fill="#333366" font-family="'Arial-BoldMT'" font-size="19.9368">U</tspan><tspan x="45.452" y="0" fill="#333366" font-family="'Arial-BoldMT'" font-size="19.9368">A</tspan><tspan x="59.91" y="0" fill="#333366" font-family="'Arial-BoldMT'" font-size="19.9368">L</tspan><tspan x="72.108" y="0" fill="#333366" font-family="'Arial-BoldMT'" font-size="19.9368">I</tspan><tspan x="77.587" y="0" fill="#333366" font-family="'Arial-BoldMT'" font-size="19.9368">Z</tspan><tspan x="89.785" y="0" fill="#333366" font-family="'Arial-BoldMT'" font-size="19.9368">Á</tspan><tspan x="104.243" y="0" fill="#333366" font-family="'Arial-BoldMT'" font-size="19.9368">C</tspan><tspan x="118.721" y="0" fill="#333366" font-family="'Arial-BoldMT'" font-size="19.9368">I</tspan><tspan x="124.2" y="0" fill="#333366" font-family="'Arial-BoldMT'" font-size="19.9368">A</tspan></text>
<path fill-rule="evenodd" clip-rule="evenodd" fill="#FFFFFF" d="M72.021,28.463c0-0.254,0.057-0.48,0.17-0.706
	c0.142-0.226,0.312-0.396,0.539-0.537c0.227-0.113,0.453-0.169,0.708-0.169v1.412H72.021L72.021,28.463z"/>
<path fill-rule="evenodd" clip-rule="evenodd" fill="#FFFFFF" d="M573.446,175.307c0,0.254-0.085,0.479-0.198,0.706
	c-0.142,0.226-0.312,0.395-0.538,0.537c-0.227,0.112-0.453,0.197-0.708,0.197v-1.44H573.446L573.446,175.307z"/>
<text transform="matrix(1.0031 0 0 1 249.3516 15.3882)"><tspan x="0" y="0" fill="#333366" font-family="'ArialMT'" font-size="17.9318">V</tspan><tspan x="10.992" y="0" fill="#333366" font-family="'ArialMT'" font-size="17.9318">e</tspan><tspan x="20.947" y="0" fill="#333366" font-family="'ArialMT'" font-size="17.9318">r</tspan><tspan x="26.919" y="0" fill="#333366" font-family="'ArialMT'" font-size="17.9318">i</tspan><tspan x="30.849" y="0" fill="#333366" font-family="'ArialMT'" font-size="17.9318">f</tspan><tspan x="35.866" y="0" fill="#333366" font-family="'ArialMT'" font-size="17.9318">i</tspan><tspan x="39.832" y="0" fill="#333366" font-family="'ArialMT'" font-size="17.9318">k</tspan><tspan x="48.798" y="0" fill="#333366" font-family="'ArialMT'" font-size="17.9318">a</tspan><tspan x="58.753" y="0" fill="#333366" font-family="'ArialMT'" font-size="17.9318">č</tspan><tspan x="67.719" y="0" fill="#333366" font-family="'ArialMT'" font-size="17.9318">n</tspan><tspan x="77.638" y="0" fill="#333366" font-family="'ArialMT'" font-size="17.9318">ý</tspan><tspan x="86.604" y="0" fill="#333366" font-family="'ArialMT'" font-size="17.9318"> </tspan><tspan x="91.622" y="0" fill="#333366" font-family="'ArialMT'" font-size="17.9318">ba</tspan><tspan x="111.46" y="0" fill="#333366" font-family="'ArialMT'" font-size="17.9318">l</tspan><tspan x="115.426" y="0" fill="#333366" font-family="'ArialMT'" font-size="17.9318">í</tspan><tspan x="120.444" y="0" fill="#333366" font-family="'ArialMT'" font-size="17.9318">k</tspan></text>
<use xlink:href="#Arrow_27"  width="45.693" height="26.311" x="-22.847" y="-13.155" transform="matrix(1.2879 0 0 -2.3244 43.1968 101.7422)" overflow="visible"/>
<use xlink:href="#Arrow_27"  width="45.693" height="26.311" x="-22.847" y="-13.155" transform="matrix(1.2879 0 0 -2.3244 599.1973 280.7417)" overflow="visible"/>
<g>
	
		<line fill-rule="evenodd" clip-rule="evenodd" fill="none" stroke="#231F20" stroke-width="4" x1="237.737" y1="78.34" x2="385.458" y2="78.34"/>
	
		<use xlink:href="#Arrow_25"  width="45.703" height="26.309" x="-22.851" y="-13.154" transform="matrix(1 0 0 -0.6007 384.4551 78.3398)" overflow="visible"/>
</g>
<g>
	
		<line fill-rule="evenodd" clip-rule="evenodd" fill="none" stroke="#231F20" stroke-width="4" x1="238.018" y1="128.077" x2="385.739" y2="128.077"/>
	
		<use xlink:href="#Arrow_25"  width="45.703" height="26.309" x="-22.851" y="-13.154" transform="matrix(1 0 0 -0.6007 384.7363 128.0767)" overflow="visible"/>
</g>
<rect x="72.778" y="29.777" fill-rule="evenodd" clip-rule="evenodd" fill="none" stroke="#333366" stroke-width="3" stroke-dasharray="12" width="493.491" height="141.051"/>
<rect x="397.216" y="228.402" transform="matrix(1 0.0037 -0.0037 1 1.0422 -1.7811)" fill-rule="evenodd" clip-rule="evenodd" fill="none" stroke="#333366" stroke-width="3" stroke-dasharray="12" width="171.07" height="105.793"/>
<text transform="matrix(1.0031 0 0 1 414.3516 358.3882)"><tspan x="0" y="0" fill="#333366" font-family="'ArialMT'" font-size="17.9318">V</tspan><tspan x="10.992" y="0" fill="#333366" font-family="'ArialMT'" font-size="17.9318">izualizačný</tspan><tspan x="98.699" y="0" fill="#333366" font-family="'ArialMT'" font-size="17.9318"> </tspan><tspan x="103.716" y="0" fill="#333366" font-family="'ArialMT'" font-size="17.9318">ba</tspan><tspan x="123.555" y="0" fill="#333366" font-family="'ArialMT'" font-size="17.9318">l</tspan><tspan x="127.521" y="0" fill="#333366" font-family="'ArialMT'" font-size="17.9318">í</tspan><tspan x="132.538" y="0" fill="#333366" font-family="'ArialMT'" font-size="17.9318">k</tspan></text>
<line fill-rule="evenodd" clip-rule="evenodd" fill="none" stroke="#231F20" stroke-width="4" x1="481.802" y1="142.42" x2="481.802" y2="222.013"/>
<use xlink:href="#Arrow_25"  width="45.703" height="26.309" x="-22.851" y="-13.154" transform="matrix(0 1 0.6007 0 481.8018 221.0103)" overflow="visible"/>
</svg>
