<?xml version="1.0" encoding="UTF-8" standalone="no"?>
<!-- Created with Inkscape (http://www.inkscape.org/) -->

<svg
   xmlns:dc="http://purl.org/dc/elements/1.1/"
   xmlns:cc="http://creativecommons.org/ns#"
   xmlns:rdf="http://www.w3.org/1999/02/22-rdf-syntax-ns#"
   xmlns:svg="http://www.w3.org/2000/svg"
   xmlns="http://www.w3.org/2000/svg"
   xmlns:sodipodi="http://sodipodi.sourceforge.net/DTD/sodipodi-0.dtd"
   xmlns:inkscape="http://www.inkscape.org/namespaces/inkscape"
   id="svg4136"
   version="1.1"
   inkscape:version="0.91 r13725"
   xml:space="preserve"
   width="765"
   height="990"
   viewBox="0 0 765 990"
   sodipodi:docname="TaylorDiagram.svg"><metadata
     id="metadata4142"><rdf:RDF><cc:Work
         rdf:about=""><dc:format>image/svg+xml</dc:format><dc:type
           rdf:resource="http://purl.org/dc/dcmitype/StillImage" /><dc:title></dc:title></cc:Work></rdf:RDF></metadata><defs
     id="defs4140" /><sodipodi:namedview
     pagecolor="#ffffff"
     bordercolor="#666666"
     borderopacity="1"
     objecttolerance="10"
     gridtolerance="10"
     guidetolerance="10"
     inkscape:pageopacity="0"
     inkscape:pageshadow="2"
     inkscape:window-width="1920"
     inkscape:window-height="1022"
     id="namedview4138"
     showgrid="false"
     inkscape:zoom="1.4142136"
     inkscape:cx="513.12311"
     inkscape:cy="567.34759"
     inkscape:window-x="-9"
     inkscape:window-y="-9"
     inkscape:window-maximized="1"
     inkscape:current-layer="g4144" /><g
     id="g4144"
     inkscape:groupmode="layer"
     inkscape:label="TaylorDiagramExamples"
     transform="matrix(1.25,0,0,-1.25,0,990)"><path
       d="m 93.2455,265.9315 396.001,0 m -396.001,0 0,7.909"
       style="fill:none;stroke:#000000;stroke-width:1.13399994;stroke-linecap:butt;stroke-linejoin:miter;stroke-miterlimit:2.5;stroke-dasharray:none;stroke-opacity:1"
       id="path4146"
       inkscape:connector-curvature="0" /><path
       d="m 92.6215,258.2785 -0.963,-0.312 -0.624,-0.936 -0.312,-1.587 0,-0.964 0.312,-1.559 0.624,-0.964 0.963,-0.312 0.624,0 0.935,0.312 0.652,0.964 0.312,1.559 0,0.964 -0.312,1.587 -0.652,0.936 -0.935,0.312 -0.624,0"
       style="fill:none;stroke:#000000;stroke-width:0.85000002;stroke-linecap:butt;stroke-linejoin:miter;stroke-miterlimit:2.5;stroke-dasharray:none;stroke-opacity:1"
       id="path4148"
       inkscape:connector-curvature="0" /><path
       d="m 192.2595,265.9315 0,7.909"
       style="fill:none;stroke:#000000;stroke-width:1.13399994;stroke-linecap:butt;stroke-linejoin:miter;stroke-miterlimit:2.5;stroke-dasharray:none;stroke-opacity:1"
       id="path4150"
       inkscape:connector-curvature="0" /><path
       d="m 190.6725,257.0305 0.624,0.312 0.963,0.936 0,-6.634"
       style="fill:none;stroke:#000000;stroke-width:0.85000002;stroke-linecap:butt;stroke-linejoin:miter;stroke-miterlimit:2.5;stroke-dasharray:none;stroke-opacity:1"
       id="path4152"
       inkscape:connector-curvature="0" /><path
       d="m 291.2455,265.9315 0,7.909"
       style="fill:none;stroke:#000000;stroke-width:1.13399994;stroke-linecap:butt;stroke-linejoin:miter;stroke-miterlimit:2.5;stroke-dasharray:none;stroke-opacity:1"
       id="path4154"
       inkscape:connector-curvature="0" /><path
       d="m 289.0345,256.6905 0,0.34 0.312,0.624 0.312,0.312 0.652,0.312 1.247,0 0.624,-0.312 0.34,-0.312 0.312,-0.624 0,-0.652 -0.312,-0.623 -0.652,-0.936 -3.146,-3.175 4.422,0"
       style="fill:none;stroke:#000000;stroke-width:0.85000002;stroke-linecap:butt;stroke-linejoin:miter;stroke-miterlimit:2.5;stroke-dasharray:none;stroke-opacity:1"
       id="path4156"
       inkscape:connector-curvature="0" /><path
       d="m 390.2605,265.9315 0,7.909 m 98.986,-7.909 0,7.909"
       style="fill:none;stroke:#000000;stroke-width:1.13399994;stroke-linecap:butt;stroke-linejoin:miter;stroke-miterlimit:2.5;stroke-dasharray:none;stroke-opacity:1"
       id="path4158"
       inkscape:connector-curvature="0" /><path
       d="m 93.2455,265.9315 0,396.001 m 0,-396.001 7.909,0"
       style="fill:none;stroke:#000000;stroke-width:1.13399994;stroke-linecap:butt;stroke-linejoin:miter;stroke-miterlimit:2.5;stroke-dasharray:none;stroke-opacity:1"
       id="path4162"
       inkscape:connector-curvature="0" /><path
       d="m 86.4425,272.5645 -0.936,-0.312 -0.652,-0.935 -0.311,-1.587 0,-0.964 0.311,-1.559 0.652,-0.964 0.936,-0.312 0.652,0 0.935,0.312 0.624,0.964 0.312,1.559 0,0.964 -0.312,1.587 -0.624,0.935 -0.935,0.312 -0.652,0"
       style="fill:none;stroke:#000000;stroke-width:0.85000002;stroke-linecap:butt;stroke-linejoin:miter;stroke-miterlimit:2.5;stroke-dasharray:none;stroke-opacity:1"
       id="path4164"
       inkscape:connector-curvature="0" /><path
       d="m 93.2455,364.9455 7.909,0"
       style="fill:none;stroke:#000000;stroke-width:1.13399994;stroke-linecap:butt;stroke-linejoin:miter;stroke-miterlimit:2.5;stroke-dasharray:none;stroke-opacity:1"
       id="path4166"
       inkscape:connector-curvature="0" /><path
       d="m 85.5065,366.5045 0.624,0.312 0.964,0.936 0,-6.633"
       style="fill:none;stroke:#000000;stroke-width:0.85000002;stroke-linecap:butt;stroke-linejoin:miter;stroke-miterlimit:2.5;stroke-dasharray:none;stroke-opacity:1"
       id="path4168"
       inkscape:connector-curvature="0" /><path
       d="m 93.2455,463.9315 7.909,0"
       style="fill:none;stroke:#000000;stroke-width:1.13399994;stroke-linecap:butt;stroke-linejoin:miter;stroke-miterlimit:2.5;stroke-dasharray:none;stroke-opacity:1"
       id="path4170"
       inkscape:connector-curvature="0" /><path
       d="m 84.8545,465.1795 0,0.311 0.341,0.652 0.311,0.312 0.624,0.312 1.276,0 0.623,-0.312 0.312,-0.312 0.312,-0.652 0,-0.623 -0.312,-0.624 -0.623,-0.964 -3.175,-3.146 4.422,0"
       style="fill:none;stroke:#000000;stroke-width:0.85000002;stroke-linecap:butt;stroke-linejoin:miter;stroke-miterlimit:2.5;stroke-dasharray:none;stroke-opacity:1"
       id="path4172"
       inkscape:connector-curvature="0" /><path
       d="m 93.2455,562.9175 7.909,0"
       style="fill:none;stroke:#000000;stroke-width:1.13399994;stroke-linecap:butt;stroke-linejoin:miter;stroke-miterlimit:2.5;stroke-dasharray:none;stroke-opacity:1"
       id="path4174"
       inkscape:connector-curvature="0" /><path
       d="m 85.1955,565.7525 3.458,0 -1.899,-2.523 0.963,0 0.624,-0.312 0.312,-0.311 0.312,-0.964 0,-0.624 -0.312,-0.935 -0.624,-0.652 -0.935,-0.312 -0.964,0 -0.935,0.312 -0.341,0.312 -0.311,0.652"
       style="fill:none;stroke:#000000;stroke-width:0.85000002;stroke-linecap:butt;stroke-linejoin:miter;stroke-miterlimit:2.5;stroke-dasharray:none;stroke-opacity:1"
       id="path4176"
       inkscape:connector-curvature="0" /><path
       d="m 93.2455,661.9325 7.909,0"
       style="fill:none;stroke:#000000;stroke-width:1.13399994;stroke-linecap:butt;stroke-linejoin:miter;stroke-miterlimit:2.5;stroke-dasharray:none;stroke-opacity:1"
       id="path4178"
       inkscape:connector-curvature="0" /><path
       d="m 489.2465,265.9315 -0.199,12.444 -0.595,12.416 -0.964,12.416 -1.36,12.359 -1.758,12.302 -2.126,12.274 -2.523,12.161 -2.919,12.104 -3.289,12.019 -3.656,11.877 -4.026,11.764 -4.393,11.65 -4.762,11.48 -5.131,11.339 -5.471,11.169 -5.811,10.998 -6.151,10.8 -6.52,10.63 -6.831,10.375 -7.144,10.176 -7.483,9.95 -7.767,9.723 -8.079,9.467 -8.362,9.185 -8.674,8.929 -8.929,8.674 -9.185,8.362 -9.467,8.079 -9.723,7.767 -9.95,7.483 -10.176,7.144 -10.375,6.831 -10.63,6.52 -10.8,6.151 -10.998,5.811 -11.169,5.471 -11.339,5.131 -11.48,4.762 -11.65,4.393 -11.764,4.026 -11.877,3.656 -12.019,3.289 -12.104,2.919 -12.161,2.523 -12.274,2.126 -12.302,1.758 -12.359,1.36 -12.416,0.964 -12.416,0.595 -12.444,0.199"
       style="fill:none;stroke:#000000;stroke-width:1.13399994;stroke-linecap:butt;stroke-linejoin:miter;stroke-miterlimit:2.5;stroke-dasharray:none;stroke-opacity:1"
       id="path4182"
       inkscape:connector-curvature="0" /><path
       d="m 132.8455,659.9475 -39.6,-394.016 79.2,388.007 m 39.6,-10.233 -118.8,-377.774 158.4,362.949 m 39.6,-20.013 -198,-342.936 237.6,316.801 m 39.601,-33.988 -277.201,-282.813 316.801,237.6 m 39.6,-64.998 -356.401,-172.602 m 19.814,395.519 -0.312,-5.953 m 39.912,1.956 -0.907,-5.868 m 40.507,-2.239 -1.502,-5.755 m 41.102,-6.718 -2.097,-5.556 m 41.698,-11.735 -2.693,-5.329 m 42.293,-17.603 -3.289,-4.961 m 42.86,-24.831 -3.855,-4.508 m 43.484,-34.497 -4.479,-3.912 m 44.079,-49.408 -5.074,-3.118 m 44.674,-81.837 -5.669,-1.842 m -10.177,42.378 -3.6,-1.644 m 7.54,-7.342 -3.628,-1.559 m 7.597,-8.079 -3.685,-1.474 m 7.653,-8.986 -3.741,-1.332 m 11.65,-22.875 -3.798,-1.134 m 7.766,-13.493 -3.855,-0.964 m 7.824,-16.498 -3.883,-0.793 m 7.823,-22.139 -3.912,-0.567"
       style="fill:none;stroke:#0000ff;stroke-width:0.79400003;stroke-linecap:butt;stroke-linejoin:miter;stroke-miterlimit:2.5;stroke-dasharray:none;stroke-opacity:1"
       id="path4184"
       inkscape:connector-curvature="0" /><path
       d="m 90.5815,668.4235 0.311,-0.935 0.936,-0.652 1.587,-0.312 0.964,0 1.559,0.312 0.964,0.652 0.312,0.935 0,0.652 -0.312,0.935 -0.964,0.624 -1.559,0.312 -0.964,0 -1.587,-0.312 -0.936,-0.624 -0.311,-0.935 0,-0.652 m 6.009,5.074 0.312,-0.312 0.312,0.312 -0.312,0.312 -0.312,-0.312 m -6.009,4.422 0.311,-0.964 0.936,-0.623 1.587,-0.312 0.964,0 1.559,0.312 0.964,0.623 0.312,0.964 0,0.624 -0.312,0.964 -0.964,0.623 -1.559,0.312 -0.964,0 -1.587,-0.312 -0.936,-0.623 -0.311,-0.964 0,-0.624 m 40.252,-11.253 0.226,-0.964 0.879,-0.709 1.531,-0.482 0.964,-0.085 1.587,0.142 1.02,0.538 0.397,0.908 0.057,0.623 -0.198,0.992 -0.879,0.709 -1.559,0.482 -0.936,0.085 -1.615,-0.142 -0.993,-0.538 -0.425,-0.907 -0.056,-0.652 m 6.491,4.45 0.283,-0.34 0.341,0.283 -0.284,0.34 -0.34,-0.283 m -4.365,3.94 -0.256,0.652 -0.85,1.049 6.605,-0.68 m 32.683,-15.251 0.114,-0.992 0.793,-0.794 1.474,-0.623 0.936,-0.199 1.615,0 1.049,0.425 0.511,0.851 0.113,0.624 -0.113,0.992 -0.794,0.822 -1.474,0.623 -0.936,0.199 -1.615,0 -1.049,-0.425 -0.51,-0.879 -0.114,-0.624 m 6.888,3.77 0.256,-0.397 0.368,0.255 -0.255,0.369 -0.369,-0.227 m -3.77,3.657 -0.311,0.057 -0.567,0.453 -0.227,0.369 -0.199,0.68 0.256,1.247 0.453,0.539 0.369,0.255 0.68,0.198 0.624,-0.141 0.538,-0.426 0.822,-0.822 2.466,-3.713 0.879,4.337 m 31.408,-20.608 0,-0.992 0.737,-0.879 1.417,-0.765 0.879,-0.312 1.616,-0.17 1.105,0.34 0.567,0.794 0.199,0.595 -0.029,1.021 -0.708,0.878 -1.418,0.766 -0.907,0.283 -1.587,0.199 -1.106,-0.341 -0.567,-0.793 -0.198,-0.624 m 7.257,3.033 0.198,-0.397 0.397,0.199 -0.198,0.397 -0.397,-0.199 m -4.791,4.819 1.049,3.317 1.842,-2.552 0.284,0.879 0.482,0.51 0.397,0.227 0.992,0 0.623,-0.17 0.794,-0.595 0.425,-0.794 0,-0.992 -0.283,-0.907 -0.567,-0.822 -0.397,-0.199 -0.709,-0.113 m 32.939,-20.438 -0.085,-0.992 0.624,-0.935 1.332,-0.936 0.85,-0.368 1.588,-0.34 1.105,0.198 0.681,0.737 0.255,0.567 0.085,0.992 -0.624,0.964 -1.304,0.935 -0.879,0.369 -1.587,0.34 -1.106,-0.198 -0.68,-0.737 -0.255,-0.596 m 7.54,2.24 0.17,-0.397 0.397,0.142 -0.142,0.425 -0.425,-0.17 m -3.231,7.625 2.806,-4.677 1.871,4.365 m -4.677,0.312 6.094,-2.665 m 29.991,-27.241 -0.199,-0.992 0.511,-1.02 1.19,-1.049 0.822,-0.482 1.531,-0.51 1.134,0.056 0.765,0.681 0.312,0.538 0.198,0.992 -0.51,1.021 -1.19,1.049 -0.822,0.482 -1.531,0.51 -1.134,-0.057 -0.765,-0.68 -0.312,-0.539 m 7.738,1.389 0.114,-0.453 0.425,0.113 -0.113,0.454 -0.426,-0.114 m -2.041,8.476 -1.587,-2.75 2.296,-1.701 -0.113,0.454 0.198,0.964 0.482,0.822 0.737,0.652 0.879,0.255 0.964,-0.199 0.567,-0.34 0.651,-0.737 0.227,-0.85 -0.198,-0.992 -0.454,-0.822 -0.765,-0.652 -0.425,-0.114 -0.709,0.029 m 31.975,-30.189 -0.312,-0.964 0.369,-1.049 1.077,-1.219 0.765,-0.567 1.446,-0.68 1.162,-0.085 0.822,0.567 0.369,0.51 0.311,0.964 -0.368,1.077 -1.077,1.191 -0.766,0.567 -1.445,0.708 -1.134,0.057 -0.822,-0.567 -0.397,-0.51 m 7.852,0.453 0.057,-0.453 0.453,0.056 -0.085,0.454 -0.425,-0.057 m -0.057,8.334 -0.708,0.114 -0.823,-0.567 -0.368,-0.482 -0.34,-0.964 0.397,-1.077 1.077,-1.191 1.247,-0.964 1.219,-0.51 0.879,0.142 0.822,0.567 0.198,0.255 0.312,0.935 -0.142,0.907 -0.567,0.823 -0.255,0.17 -0.935,0.311 -0.879,-0.113 -0.822,-0.567 -0.198,-0.255 -0.312,-0.935 0.113,-0.908 0.567,-0.822 m 32.202,-37.956 -0.425,-0.878 0.226,-1.134 0.907,-1.332 0.681,-0.652 1.36,-0.879 1.106,-0.227 0.879,0.454 0.453,0.453 0.454,0.907 -0.255,1.106 -0.908,1.332 -0.68,0.68 -1.332,0.879 -1.134,0.199 -0.879,-0.454 -0.453,-0.454 m 7.823,-0.595 0.029,-0.425 0.425,0 0,0.425 -0.454,0 m 0.596,9.184 2.522,-6.916 m -5.612,3.742 3.09,3.174 m 32.145,-54.255 -0.567,-0.822 0.056,-1.134 0.709,-1.474 0.567,-0.737 1.19,-1.077 1.078,-0.397 0.935,0.34 0.51,0.369 0.567,0.822 -0.056,1.134 -0.681,1.446 -0.595,0.765 -1.191,1.077 -1.077,0.369 -0.935,-0.312 -0.51,-0.369 m 7.653,-1.786 -0.057,-0.425 0.426,-0.056 0.056,0.425 -0.425,0.056 m -0.312,7.285 -0.567,-0.822 0.114,-0.708 0.368,-0.482 0.652,-0.34 0.681,0.141 1.218,0.511 0.936,0.311 0.879,-0.141 0.652,-0.312 0.567,-0.737 0.113,-0.709 -0.057,-0.453 -0.567,-0.822 -1.02,-0.737 -0.936,-0.34 -0.453,0.085 -0.624,0.311 -0.567,0.766 -0.141,0.68 0.141,0.879 0.567,0.822 0.822,1.02 0.312,0.624 -0.142,0.709 -0.368,0.51 -0.624,0.312 -0.964,-0.312 -0.992,-0.766 m 33.336,-71.291 -0.709,-0.709 -0.17,-1.105 0.425,-1.559 0.397,-0.879 0.992,-1.276 0.964,-0.567 0.992,0.114 0.567,0.283 0.737,0.709 0.142,1.106 -0.397,1.587 -0.425,0.85 -0.964,1.276 -0.992,0.567 -0.992,-0.114 -0.567,-0.283 m 7.171,-3.203 -0.141,-0.425 0.425,-0.142 0.142,0.425 -0.426,0.142 m 4.337,6.321 0.114,-0.992 -0.284,-0.85 -0.708,-0.709 -0.284,-0.142 -0.992,-0.113 -0.85,0.283 -0.709,0.737 -0.142,0.284 -0.113,0.992 0.283,0.822 0.709,0.709 0.284,0.141 0.992,0.114 0.85,-0.284 0.85,-0.992 0.681,-1.417 0.397,-1.588 -0.142,-1.105 -0.737,-0.709 -0.567,-0.283 -0.992,-0.114 -0.539,0.426 m 10.857,-47.963 -0.794,-0.595 -0.312,-1.105 0.199,-1.588 0.283,-0.907 0.794,-1.389 0.907,-0.709 0.992,0 0.596,0.199 0.793,0.595 0.312,1.077 -0.198,1.616 -0.284,0.907 -0.794,1.389 -0.907,0.709 -0.992,0 -0.595,-0.199 m 6.69,-4.11 -0.227,-0.397 0.425,-0.227 0.199,0.426 -0.397,0.198 m 5.102,5.669 0,-0.992 -0.397,-0.822 -0.793,-0.595 -0.312,-0.085 -0.992,0 -0.794,0.397 -0.595,0.822 -0.114,0.283 0,0.992 0.397,0.822 0.822,0.596 0.284,0.085 1.02,0 0.794,-0.397 0.68,-1.106 0.51,-1.502 0.17,-1.616 -0.283,-1.077 -0.822,-0.595 -0.595,-0.199 -0.993,0 -0.51,0.511 m 7.54,8.447 -3.004,-0.992 0.595,-2.778 0.198,0.397 0.794,0.595 0.907,0.283 0.992,0 0.822,-0.396 0.596,-0.823 0.198,-0.595 -0.028,-0.992 -0.397,-0.794 -0.794,-0.595 -0.907,-0.312 -0.992,0 -0.397,0.227 -0.51,0.482 m 1.672,-68.032 -0.907,-0.425 -0.482,-1.049 -0.085,-1.587 0.142,-0.964 0.51,-1.502 0.766,-0.851 0.992,-0.198 0.623,0.113 0.907,0.426 0.482,1.048 0.085,1.588 -0.141,0.964 -0.511,1.502 -0.765,0.85 -0.992,0.17 -0.624,-0.085 m 5.84,-5.215 -0.255,-0.369 0.368,-0.255 0.255,0.34 -0.368,0.284 m 6.037,4.677 -0.17,-0.964 -0.538,-0.737 -0.879,-0.425 -0.312,-0.057 -0.992,0.17 -0.709,0.539 -0.453,0.907 -0.057,0.312 0.199,0.992 0.538,0.708 0.879,0.454 0.312,0.028 0.992,-0.17 0.709,-0.538 0.481,-1.219 0.227,-1.559 -0.085,-1.616 -0.482,-1.021 -0.907,-0.453 -0.623,-0.085 -0.993,0.17 -0.396,0.595 m 9.524,4.876 -0.17,-0.992 -0.539,-0.709 -0.878,-0.453 -0.34,-0.057 -0.964,0.198 -0.709,0.539 -0.453,0.879 -0.057,0.311 0.198,0.993 0.511,0.708 0.907,0.454 0.311,0.056 0.993,-0.198 0.708,-0.539 0.482,-1.19 0.227,-1.588 -0.085,-1.587 -0.482,-1.049 -0.907,-0.425 -0.624,-0.085 -0.992,0.17 -0.397,0.567 m -11.423,-54.369 0.623,0.312 0.964,0.936 0,-6.633 m 4.422,0.623 -0.312,-0.312 0.312,-0.311 0.312,0.311 -0.312,0.312 m 4.422,6.01 -0.964,-0.312 -0.623,-0.936 -0.312,-1.587 0,-0.964 0.312,-1.559 0.623,-0.964 0.964,-0.311 0.624,0 0.964,0.311 0.623,0.964 0.312,1.559 0,0.964 -0.312,1.587 -0.623,0.936 -0.964,0.312 -0.624,0 m -136.006,330.321 0.198,0.851 -0.113,1.134 -0.369,0.793 -1.219,0.993 -0.85,0.198 -1.106,-0.113 -0.822,-0.341 -1.049,-0.68 -1.247,-1.531 -0.453,-1.162 -0.199,-0.85 0.114,-1.134 0.368,-0.794 1.219,-0.992 0.85,-0.198 1.134,0.113 0.794,0.34 m 7.654,-1.786 -0.879,0.227 -1.106,-0.085 -1.077,-0.652 -0.51,-0.595 -0.482,-1.162 0.085,-1.106 0.34,-0.822 0.907,-0.765 0.851,-0.227 1.133,0.085 1.049,0.652 0.539,0.595 0.453,1.162 -0.085,1.106 -0.34,0.822 -0.878,0.765 m 5.244,-4.563 -3.685,-4.139 m 2.097,2.353 1.077,0.623 1.134,0.085 0.851,-0.226 0.878,-0.794 m 2.495,-2.268 -3.742,-4.082 m 2.126,2.325 1.106,0.623 1.105,0.029 0.851,-0.227 0.878,-0.822 m 1.021,-4.167 3.43,-3.288 0.538,0.595 0.255,0.822 0,0.567 -0.311,0.85 -0.851,0.794 -0.85,0.284 -1.106,-0.029 -1.105,-0.595 -0.539,-0.567 -0.538,-1.134 0.028,-1.134 0.283,-0.822 0.879,-0.822 0.822,-0.255 1.134,0.028 m 8.504,1.645 -5.839,-5.897 m 10.601,-2.834 -3.94,-3.855 m 3.09,3.033 0,1.105 -0.255,0.851 -0.822,0.85 -0.851,0.283 -1.105,0.029 -1.134,-0.567 -0.567,-0.539 -0.567,-1.105 0,-1.134 0.255,-0.85 0.822,-0.822 0.851,-0.312 1.105,0 m 8.447,1.502 -4.904,-4.62 -0.566,-1.106 0.255,-0.85 0.538,-0.567 m 1.843,6.094 1.899,-2.012 m 4.847,-1.134 -0.028,-0.567 0.567,-0.028 0.028,0.566 -0.567,0.029 m -1.757,-2.183 -4.082,-3.742 m 8.079,-0.623 -0.823,0.312 -1.105,0.056 -1.162,-0.482 -0.595,-0.538 -0.596,-1.077 -0.085,-1.106 0.255,-0.879 0.766,-0.878 0.822,-0.312 1.134,-0.057 1.133,0.482 0.596,0.539 0.623,1.077 0.057,1.105 -0.227,0.851 -0.793,0.907 m 4.904,-5.556 -4.196,-3.6 m 3.005,2.579 1.672,-0.141 0.794,-0.341 0.794,-0.907 0.198,-0.85 -0.652,-1.077 -2.976,-2.551"
       style="fill:none;stroke:#0000ff;stroke-width:0.85000002;stroke-linecap:butt;stroke-linejoin:miter;stroke-miterlimit:2.5;stroke-dasharray:none;stroke-opacity:1"
       id="path4186"
       inkscape:connector-curvature="0" /><path
       d="m 93.2455,265.9315 0,0"
       style="fill:none;stroke:#000000;stroke-width:0.56699997;stroke-linecap:round;stroke-linejoin:miter;stroke-miterlimit:2.5;stroke-dasharray:none;stroke-opacity:1"
       id="path4188"
       inkscape:connector-curvature="0" /><path
       d="m 192.2595,265.9315 -0.056,3.118 -0.142,3.09 -0.255,3.118 -0.34,3.09 -0.425,3.061 -0.539,3.062 -0.652,3.061 -0.709,3.033 -0.822,2.977 -0.907,2.976 -1.02,2.948 -1.106,2.92 -1.19,2.863 -1.276,2.834 -1.361,2.807 -1.445,2.749 -1.559,2.693 -1.616,2.636 -1.701,2.608 -1.814,2.551 -1.843,2.495 -1.955,2.409 -2.013,2.381 -2.098,2.297 -2.154,2.239 -2.239,2.154 -2.297,2.098 -2.381,2.012 -2.409,1.956 -2.495,1.843 -2.551,1.814 -2.608,1.701 -2.636,1.616 -2.693,1.559 -2.749,1.445 -2.807,1.361 -2.834,1.276 -2.863,1.19 -2.92,1.106 -2.948,1.02 -2.976,0.907 -2.977,0.822 -3.033,0.709 -3.061,0.652 -3.062,0.539 -3.061,0.425 -3.09,0.34 -3.118,0.255 -3.09,0.142 -3.118,0.028 m 198,-98.986 -0.085,6.208 -0.311,6.236 -0.482,6.18 -0.681,6.179 -0.878,6.18 -1.078,6.123 -1.247,6.094 -1.446,6.038 -1.644,6.009 -1.842,5.925 -2.013,5.896 -2.211,5.811 -2.353,5.754 -2.579,5.67 -2.721,5.584 -2.92,5.499 -3.09,5.414 -3.231,5.301 -3.43,5.187 -3.572,5.103 -3.742,4.96 -3.883,4.848 -4.025,4.734 -4.196,4.62 -4.337,4.45 -4.45,4.337 -4.62,4.196 -4.734,4.025 -4.848,3.883 -4.96,3.742 -5.103,3.572 -5.187,3.43 -5.301,3.231 -5.414,3.09 -5.499,2.92 -5.584,2.721 -5.67,2.579 -5.754,2.353 -5.811,2.211 -5.896,2.013 -5.925,1.842 -6.009,1.644 -6.038,1.446 -6.094,1.247 -6.123,1.078 -6.18,0.878 -6.179,0.681 -6.18,0.482 -6.236,0.311 -6.208,0.085 m 297.015,-198 -0.17,9.326 -0.426,9.326 -0.737,9.298 -1.02,9.269 -1.304,9.241 -1.616,9.184 -1.899,9.156 -2.183,9.071 -2.466,8.986 -2.721,8.929 -3.033,8.816 -3.288,8.731 -3.572,8.617 -3.855,8.504 -4.082,8.39 -4.365,8.249 -4.649,8.079 -4.876,7.965 -5.102,7.796 -5.386,7.653 -5.584,7.455 -5.84,7.285 -6.066,7.087 -6.264,6.888 -6.492,6.718 -6.718,6.492 -6.888,6.264 -7.087,6.066 -7.285,5.84 -7.455,5.584 -7.653,5.386 -7.796,5.102 -7.965,4.876 -8.079,4.649 -8.249,4.365 -8.39,4.082 -8.504,3.855 -8.617,3.572 -8.731,3.288 -8.816,3.033 -8.929,2.721 -8.986,2.466 -9.071,2.183 -9.156,1.899 -9.184,1.616 -9.241,1.304 -9.269,1.02 -9.298,0.737 -9.326,0.426 -9.326,0.141"
       style="fill:none;stroke:#000000;stroke-width:0.79400003;stroke-linecap:butt;stroke-linejoin:miter;stroke-miterlimit:2.5;stroke-dasharray:none;stroke-opacity:1"
       id="path4190"
       inkscape:connector-curvature="0" /><path
       d="m 320.9525,265.9315 0.029,1.559 0.057,1.559 0.141,1.531 0.17,1.559 0.199,1.531 0.283,1.53 0.312,1.531 0.369,1.502 0.396,1.503 0.454,1.502 0.51,1.474 0.539,1.446 0.595,1.446 0.652,1.417 0.68,1.389 0.737,1.361 0.766,1.36 0.822,1.332 0.85,1.304 0.879,1.248 0.935,1.247 0.964,1.219 1.021,1.19 1.048,1.134 1.078,1.134 1.133,1.077 1.134,1.049 1.191,1.02 1.219,0.964 1.247,0.936 1.247,0.878 1.304,0.851 1.332,0.822 1.361,0.765 1.361,0.737 1.389,0.681 1.417,0.652 1.446,0.595 1.445,0.538 1.474,0.511 1.503,0.453 1.502,0.397 1.502,0.369 1.531,0.311 1.531,0.284 1.531,0.198 1.559,0.199 1.53,0.113 1.559,0.057 1.56,0.028 1.559,-0.028 1.559,-0.057 1.53,-0.113 1.559,-0.199 1.531,-0.198 1.531,-0.284 1.531,-0.311 1.502,-0.369 1.502,-0.397 1.503,-0.453 1.474,-0.511 1.445,-0.538 1.446,-0.595 1.417,-0.652 1.389,-0.681 1.361,-0.737 1.361,-0.765 1.332,-0.822 1.304,-0.851 1.247,-0.878 1.247,-0.936 1.219,-0.964 1.191,-1.02 1.134,-1.049"
       style="fill:none;stroke:#00ff00;stroke-width:0.79400003;stroke-linecap:butt;stroke-linejoin:miter;stroke-miterlimit:2.5;stroke-dasharray:none;stroke-opacity:1"
       id="path4192"
       inkscape:connector-curvature="0" /><path
       d="m 410.1595,299.7205 -0.709,0.51 -1.02,0 -1.332,-0.595 -0.681,-0.482 -0.992,-1.049 -0.368,-0.935 0.255,-0.879 0.34,-0.453 0.709,-0.539 1.02,0.028 1.304,0.596 0.709,0.482 0.992,1.048 0.368,0.936 -0.255,0.85 -0.34,0.482 m -1.786,-6.775 -0.397,0.057 -0.056,-0.397 0.396,-0.057 0.057,0.397 m 7.625,-1.559 -1.615,2.325 -2.24,-1.248 0.397,-0.056 0.709,-0.539 0.482,-0.68 0.255,-0.851 -0.114,-0.793 -0.538,-0.709 -0.454,-0.34 -0.879,-0.255 -0.765,0.142 -0.737,0.538 -0.482,0.68 -0.255,0.851 0.085,0.397 0.284,0.567"
       style="fill:none;stroke:#00ff00;stroke-width:0.85000002;stroke-linecap:butt;stroke-linejoin:miter;stroke-miterlimit:2.5;stroke-dasharray:none;stroke-opacity:1"
       id="path4194"
       inkscape:connector-curvature="0" /><path
       d="m 415.8855,285.6045 0.595,-1.446 0.539,-1.446 0.51,-1.474 0.454,-1.502 0.396,-1.503 0.369,-1.502 0.312,-1.531 0.283,-1.53 0.199,-1.531 0.198,-1.559 0.113,-1.531 0.057,-1.559 0.028,-1.559 m -148.478,0 0.028,3.118 0.142,3.09 0.255,3.118 0.34,3.09 0.425,3.061 0.539,3.062 0.652,3.061 0.708,3.033 0.822,2.977 0.907,2.976 1.021,2.948 1.105,2.92 1.191,2.863 1.276,2.834 1.36,2.807 1.446,2.749 1.559,2.693 1.616,2.636 1.7,2.608 1.815,2.551 1.842,2.495 1.956,2.409 2.013,2.381 2.097,2.297 2.155,2.239 2.239,2.154 2.296,2.098 2.381,2.012 2.41,1.956 2.494,1.843 2.551,1.814 2.608,1.701 2.636,1.616 2.693,1.559 2.75,1.445 2.806,1.361 2.835,1.276 2.863,1.19 2.92,1.106 2.948,1.02 2.976,0.907 2.976,0.822 3.033,0.709 3.062,0.652 3.061,0.539 3.062,0.425 3.089,0.34 3.119,0.255 3.089,0.142 3.118,0.028 3.119,-0.028 3.089,-0.142 3.118,-0.255 3.09,-0.34 3.062,-0.425 3.061,-0.539 3.062,-0.652 3.033,-0.709 2.976,-0.822 2.976,-0.907 2.948,-1.02 2.92,-1.106 2.863,-1.19 2.835,-1.276 2.806,-1.361 2.75,-1.445 2.693,-1.559 2.636,-1.616 2.608,-1.701 2.551,-1.814 2.494,-1.843 2.41,-1.956 2.381,-2.012 2.296,-2.098 2.239,-2.154 2.155,-2.239 2.097,-2.297"
       style="fill:none;stroke:#00ff00;stroke-width:0.79400003;stroke-linecap:butt;stroke-linejoin:miter;stroke-miterlimit:2.5;stroke-dasharray:none;stroke-opacity:1"
       id="path4196"
       inkscape:connector-curvature="0" /><path
       d="m 449.6175,328.4635 0.539,-0.311 1.19,-0.199 -4.847,-3.401 m 2.721,-2.92 -0.396,0.085 -0.057,-0.397 0.397,-0.085 0.056,0.397 m 6.662,-0.142 -0.709,0.539 -1.02,-0.029 -1.333,-0.595 -0.68,-0.482 -0.992,-1.049 -0.369,-0.935 0.256,-0.85 0.311,-0.454 0.737,-0.539 1.021,0.029 1.304,0.567 0.708,0.482 0.993,1.048 0.368,0.964 -0.255,0.851 -0.34,0.453"
       style="fill:none;stroke:#00ff00;stroke-width:0.85000002;stroke-linecap:butt;stroke-linejoin:miter;stroke-miterlimit:2.5;stroke-dasharray:none;stroke-opacity:1"
       id="path4198"
       inkscape:connector-curvature="0" /><path
       d="m 457.2145,313.6385 1.446,-2.749 1.36,-2.807 1.276,-2.834 1.191,-2.863 1.105,-2.92 1.021,-2.948 0.907,-2.976 0.822,-2.977 0.708,-3.033 0.652,-3.061 0.539,-3.062 0.425,-3.061 0.34,-3.09 0.255,-3.118 0.142,-3.09 0.057,-3.118 m -247.522,0 0.057,3.487 0.113,3.486 0.199,3.487 0.283,3.487 0.369,3.458 0.453,3.486 0.539,3.43 0.623,3.459 0.681,3.401 0.765,3.402 0.85,3.401 0.936,3.374 1.02,3.316 1.106,3.317 1.162,3.316 1.247,3.26 1.304,3.232 1.389,3.203 1.474,3.146 1.559,3.147 1.616,3.089 1.701,3.062 1.757,3.005 1.815,2.976 1.927,2.92 1.956,2.891 2.041,2.835 2.098,2.778 2.182,2.749 2.211,2.665 2.296,2.636 2.353,2.58 2.438,2.522 2.466,2.467 2.523,2.409 2.608,2.324 2.636,2.297 2.693,2.211 2.75,2.154 2.778,2.097 2.862,2.041 2.892,1.956 2.92,1.871 2.976,1.814 3.033,1.758 3.061,1.672 3.09,1.616 3.147,1.531 3.174,1.445 3.204,1.389 3.231,1.304 3.288,1.219 3.288,1.162 3.317,1.078 3.345,0.992 3.373,0.935 3.402,0.822 3.401,0.766 3.43,0.68 3.43,0.595 3.458,0.51 3.459,0.426 3.486,0.368 3.459,0.255 3.486,0.199 3.487,0.113 3.515,0.028 3.486,-0.056 3.487,-0.142 3.487,-0.227 3.458,-0.312 3.487,-0.368 3.458,-0.482 3.458,-0.539 3.43,-0.623 3.402,-0.709 3.401,-0.794 3.402,-0.878 3.345,-0.936 3.345,-1.02 3.316,-1.106 3.288,-1.19 3.26,-1.248"
       style="fill:none;stroke:#00ff00;stroke-width:0.79400003;stroke-linecap:butt;stroke-linejoin:miter;stroke-miterlimit:2.5;stroke-dasharray:none;stroke-opacity:1"
       id="path4200"
       inkscape:connector-curvature="0" /><path
       d="m 430.9655,403.7805 0.652,0 1.106,0.397 -2.58,-5.329 m 3.799,-1.219 -0.369,-0.113 0.142,-0.397 0.368,0.141 -0.141,0.369 m 7.426,2.381 -2.522,1.219 -1.389,-2.154 0.396,0.113 0.879,-0.113 0.766,-0.369 0.623,-0.624 0.284,-0.737 -0.114,-0.907 -0.255,-0.51 -0.623,-0.623 -0.766,-0.256 -0.879,0.114 -0.765,0.368 -0.624,0.624 -0.141,0.368 0,0.624"
       style="fill:none;stroke:#00ff00;stroke-width:0.85000002;stroke-linecap:butt;stroke-linejoin:miter;stroke-miterlimit:2.5;stroke-dasharray:none;stroke-opacity:1"
       id="path4202"
       inkscape:connector-curvature="0" /><path
       d="m 444.4585,394.6815 3.005,-1.786 2.976,-1.842 2.92,-1.928 2.863,-1.984 2.835,-2.041 2.778,-2.126 2.721,-2.183 2.664,-2.239 2.637,-2.296 2.551,-2.381 2.523,-2.41 m -302.486,-105.534 0.029,3.855 0.113,3.884 0.198,3.855 0.255,3.855 0.341,3.827 0.425,3.855 0.482,3.827 0.567,3.826 0.623,3.799 0.737,3.798 0.766,3.799 0.878,3.77 0.936,3.741 0.992,3.742 1.077,3.685 1.162,3.714 1.219,3.656 1.276,3.629 1.389,3.628 1.417,3.572 1.502,3.571 1.588,3.515 1.644,3.515 1.701,3.459 1.786,3.429 1.842,3.402 1.899,3.345 1.985,3.316 2.041,3.289 2.097,3.231 2.154,3.203 2.24,3.175 2.296,3.09 2.353,3.09 2.409,3.004 2.466,2.977 2.523,2.919 2.58,2.892 2.636,2.806 2.693,2.778 2.749,2.721 2.778,2.665 2.863,2.608 2.892,2.551 2.948,2.494 3.004,2.438 3.034,2.381 3.089,2.325 3.147,2.267 3.175,2.183 3.231,2.126 3.26,2.098 3.288,1.984 3.345,1.956 3.373,1.871 3.43,1.814 3.43,1.729 3.487,1.701 3.515,1.587 3.543,1.559 3.572,1.446 3.6,1.417 3.628,1.333 3.657,1.247 3.685,1.19 3.685,1.106 3.713,1.049 3.742,0.964 3.77,0.907 3.77,0.822 3.799,0.737 3.798,0.68 3.827,0.595 3.827,0.539 3.826,0.453 3.855,0.369 3.856,0.312 3.855,0.227 3.855,0.141 3.855,0.085 3.855,0 3.884,-0.085 3.855,-0.141 3.855,-0.227 3.855,-0.312 3.827,-0.369 3.855,-0.453 3.827,-0.539"
       style="fill:none;stroke:#00ff00;stroke-width:0.79400003;stroke-linecap:butt;stroke-linejoin:miter;stroke-miterlimit:2.5;stroke-dasharray:none;stroke-opacity:1"
       id="path4204"
       inkscape:connector-curvature="0" /><path
       d="m 405.0005,462.7125 0.057,0.284 0.396,0.482 0.341,0.227 0.595,0.17 1.105,-0.227 0.511,-0.397 0.198,-0.34 0.17,-0.624 -0.113,-0.538 -0.397,-0.511 -0.709,-0.708 -3.345,-2.183 3.855,-0.794 m 2.325,0.085 -0.312,-0.226 0.198,-0.34 0.341,0.226 -0.227,0.34 m 4.96,4.451 -0.878,-0.114 -0.709,-0.708 -0.567,-1.332 -0.17,-0.823 -0.028,-1.445 0.397,-0.936 0.765,-0.453 0.539,-0.114 0.907,0.114 0.708,0.708 0.567,1.333 0.17,0.822 0.029,1.445 -0.397,0.936 -0.766,0.453 -0.567,0.114"
       style="fill:none;stroke:#00ff00;stroke-width:0.85000002;stroke-linecap:butt;stroke-linejoin:miter;stroke-miterlimit:2.5;stroke-dasharray:none;stroke-opacity:1"
       id="path4206"
       inkscape:connector-curvature="0" /><path
       d="m 422.0085,457.1005 3.713,-1.049 3.714,-1.105 3.685,-1.191 3.628,-1.247 3.628,-1.333 3.6,-1.417 m -321.024,-183.827 0.029,4.224 0.113,4.223 0.17,4.224 0.255,4.224 0.34,4.223 0.397,4.196 0.454,4.195 0.538,4.195 0.624,4.195 0.68,4.167 0.737,4.139 0.822,4.167 0.907,4.11 0.964,4.139 1.049,4.082 1.105,4.081 1.163,4.054 1.247,4.054 1.304,3.996 1.389,3.997 1.446,3.969 1.53,3.968 1.588,3.912 1.644,3.884 1.701,3.855 1.785,3.826 1.843,3.827 1.927,3.77 1.985,3.714 2.041,3.713 2.097,3.657 2.155,3.628 2.239,3.6 2.296,3.543 2.324,3.515 2.41,3.487 2.466,3.43 2.523,3.373 2.608,3.345 2.636,3.317 2.693,3.26 2.75,3.203 2.806,3.146 2.863,3.118 2.891,3.062 2.977,3.033 3.004,2.948 3.062,2.919 3.118,2.863 3.175,2.807 3.203,2.749 3.26,2.693 3.288,2.637 3.345,2.579 3.401,2.523 3.43,2.466 3.459,2.409 3.514,2.353 3.572,2.268 3.6,2.239 3.629,2.155 3.656,2.097 3.714,2.041 3.713,1.985 3.77,1.899 3.799,1.871 3.855,1.757 3.855,1.729 3.883,1.644 3.912,1.588 3.969,1.53 3.968,1.446 3.997,1.361 3.997,1.332 4.053,1.247 4.054,1.162 4.082,1.106 4.11,1.02 4.11,0.964 4.11,0.907 4.167,0.822 4.139,0.766 4.167,0.68 4.195,0.595 4.196,0.539 4.195,0.482 4.223,0.397 4.196,0.311"
       style="fill:none;stroke:#00ff00;stroke-width:0.79400003;stroke-linecap:butt;stroke-linejoin:miter;stroke-miterlimit:2.5;stroke-dasharray:none;stroke-opacity:1"
       id="path4208"
       inkscape:connector-curvature="0" /><path
       d="m 357.9165,515.0125 0,0.283 0.255,0.567 0.284,0.284 0.539,0.311 1.133,0.029 0.567,-0.284 0.312,-0.283 0.284,-0.539 0.028,-0.567 -0.284,-0.567 -0.538,-0.878 -2.75,-2.892 3.94,0.114 m 2.24,0.623 -0.255,-0.311 0.283,-0.256 0.284,0.284 -0.312,0.283 m 5.527,5.5 -2.834,-0.085 -0.199,-2.552 0.255,0.312 0.851,0.284 0.85,0.028 0.851,-0.255 0.567,-0.539 0.311,-0.85 0,-0.567 -0.255,-0.85 -0.538,-0.567 -0.851,-0.312 -0.85,-0.029 -0.851,0.256 -0.283,0.283 -0.283,0.567"
       style="fill:none;stroke:#00ff00;stroke-width:0.85000002;stroke-linecap:butt;stroke-linejoin:miter;stroke-miterlimit:2.5;stroke-dasharray:none;stroke-opacity:1"
       id="path4210"
       inkscape:connector-curvature="0" /><path
       d="m 374.7265,513.3965 4.223,-0.113 4.224,-0.17 4.224,-0.256 4.223,-0.34 4.196,-0.397 4.195,-0.453 4.195,-0.539 m -310.961,-138.557 1.247,3.174 1.276,3.175 1.332,3.175 1.361,3.146 1.389,3.119 1.445,3.118 1.446,3.09 1.503,3.089 1.53,3.062 1.588,3.033 1.615,3.033 1.644,3.005 1.673,2.976 1.701,2.976 1.757,2.948 1.758,2.92 1.814,2.92 1.871,2.891 1.871,2.863 1.899,2.835 1.956,2.834 1.984,2.778 2.013,2.778 2.041,2.75 2.069,2.721 2.097,2.721 2.126,2.665 2.183,2.665 2.183,2.636 2.239,2.608 2.24,2.579 2.296,2.551 2.324,2.523 2.325,2.495 2.381,2.466 2.409,2.438 2.409,2.409 2.467,2.41 2.494,2.352 2.495,2.325 2.551,2.296 2.551,2.268 2.608,2.239 2.608,2.211 2.636,2.183 2.665,2.154 2.692,2.126 2.722,2.098 5.499,4.081 2.806,1.985 2.807,1.956 2.834,1.927 2.835,1.899 2.891,1.871 2.892,1.814 2.919,1.815 2.92,1.757 2.976,1.729 2.977,1.701 6.009,3.288 3.033,1.588 3.062,1.559 3.061,1.502 3.09,1.502 3.118,1.446 6.236,2.778 3.175,1.332 3.146,1.304 3.204,1.276 3.174,1.219"
       style="fill:none;stroke:#00ff00;stroke-width:0.79400003;stroke-linecap:butt;stroke-linejoin:miter;stroke-miterlimit:2.5;stroke-dasharray:none;stroke-opacity:1"
       id="path4212"
       inkscape:connector-curvature="0" /><path
       d="m 268.4265,548.4045 2.92,0.992 -0.879,-2.693 0.822,0.284 0.624,-0.085 0.34,-0.171 0.539,-0.708 0.198,-0.539 0,-0.907 -0.34,-0.708 -0.737,-0.539 -0.794,-0.284 -0.878,0 -0.369,0.171 -0.453,0.453 m 6.066,1.474 -0.17,-0.368 0.34,-0.17 0.198,0.34 -0.368,0.198 m 2.012,6.35 -0.708,-0.567 -0.255,-0.964 0.198,-1.446 0.255,-0.793 0.737,-1.248 0.794,-0.623 0.907,0 0.51,0.198 0.709,0.539 0.283,0.992 -0.198,1.417 -0.255,0.794 -0.737,1.247 -0.794,0.624 -0.907,0 -0.539,-0.17"
       style="fill:none;stroke:#00ff00;stroke-width:0.85000002;stroke-linecap:butt;stroke-linejoin:miter;stroke-miterlimit:2.5;stroke-dasharray:none;stroke-opacity:1"
       id="path4214"
       inkscape:connector-curvature="0" /><path
       d="m 284.8675,550.3325 3.289,0.963 3.288,0.936 3.316,0.907 3.317,0.85 3.345,0.822 3.316,0.766 3.345,0.737 3.373,0.708 3.345,0.652 3.374,0.624 3.373,0.595 3.373,0.539 3.402,0.51 3.401,0.454 3.402,0.425 3.401,0.397 3.402,0.34 3.402,0.312 3.429,0.283 3.402,0.227 3.43,0.17 m -262.347,-88.725 3.005,3.969 3.061,3.912 1.559,1.927 1.588,1.928 1.559,1.927 1.616,1.9 1.587,1.899 1.644,1.871 1.616,1.87 1.672,1.871 1.644,1.843 1.673,1.814 1.701,1.843 1.7,1.814 1.701,1.786 1.729,1.785 1.758,1.758 1.757,1.786 1.758,1.729 5.357,5.187 1.814,1.673 1.843,1.7 1.842,1.673 1.843,1.644 3.742,3.288 1.899,1.616 3.798,3.175 1.928,1.587 3.855,3.118 1.956,1.531 1.984,1.502 1.956,1.531 1.984,1.474 4.026,2.948 2.012,1.446 2.041,1.446 2.041,1.417 4.082,2.778 2.069,1.389 2.098,1.36 2.069,1.333 2.098,1.332 2.126,1.332 2.126,1.304 4.252,2.551 4.308,2.495"
       style="fill:none;stroke:#00ff00;stroke-width:0.79400003;stroke-linecap:butt;stroke-linejoin:miter;stroke-miterlimit:2.5;stroke-dasharray:none;stroke-opacity:1"
       id="path4216"
       inkscape:connector-curvature="0" /><path
       d="m 200.6225,571.8185 2.749,1.446 -0.425,-2.778 0.737,0.397 0.624,0 0.396,-0.114 0.624,-0.595 0.284,-0.51 0.141,-0.879 -0.226,-0.765 -0.624,-0.652 -0.737,-0.397 -0.879,-0.142 -0.397,0.114 -0.51,0.368 m 5.754,2.409 -0.113,-0.368 0.369,-0.113 0.113,0.368 -0.369,0.113 m 2.467,7.399 -2.495,-1.332 0.936,-2.381 0.113,0.396 0.624,0.652 0.737,0.397 0.878,0.142 0.766,-0.227 0.652,-0.623 0.255,-0.482 0.17,-0.879 -0.227,-0.765 -0.624,-0.652 -0.765,-0.397 -0.879,-0.17 -0.368,0.141 -0.51,0.341"
       style="fill:none;stroke:#00ff00;stroke-width:0.85000002;stroke-linecap:butt;stroke-linejoin:miter;stroke-miterlimit:2.5;stroke-dasharray:none;stroke-opacity:1"
       id="path4218"
       inkscape:connector-curvature="0" /><path
       d="m 216.2415,576.2405 2.239,1.077 2.239,1.106 4.479,2.098 2.268,1.048 2.268,0.992 2.267,1.021 2.296,0.992 2.268,0.964 2.296,0.935 2.324,0.936 2.297,0.935 2.324,0.879 2.324,0.907 4.649,1.701 2.353,0.85 2.324,0.822 2.353,0.794 2.381,0.794 2.353,0.765 2.381,0.737 2.353,0.737 4.762,1.417 2.41,0.681 2.381,0.68 2.409,0.652 2.381,0.624 2.41,0.623 2.409,0.595 2.438,0.567 2.409,0.567 2.438,0.539 2.41,0.538 m -204.889,-56.069 1.191,1.134 1.19,1.162 1.191,1.134 1.19,1.162 1.219,1.134 1.191,1.134 1.219,1.105 1.219,1.134 2.437,2.211 1.248,1.106 1.219,1.105 1.247,1.106 2.494,2.154 1.248,1.106 1.275,1.049 1.247,1.077 1.276,1.077 5.102,4.195 1.304,1.021 1.304,1.048 1.276,1.021 2.608,2.041 1.332,0.992 1.304,1.021 1.332,0.992 1.304,0.992 2.665,1.984 2.664,1.928 1.361,0.963 1.332,0.964 1.361,0.964 1.361,0.935 1.36,0.964 1.361,0.936 1.36,0.907 1.389,0.935 1.361,0.935 2.778,1.815 1.361,0.907 1.417,0.879 1.389,0.907 1.389,0.878 1.417,0.879 1.389,0.879 1.418,0.85 1.417,0.879 4.252,2.551"
       style="fill:none;stroke:#00ff00;stroke-width:0.79400003;stroke-linecap:butt;stroke-linejoin:miter;stroke-miterlimit:2.5;stroke-dasharray:none;stroke-opacity:1"
       id="path4220"
       inkscape:connector-curvature="0" /><path
       d="m 173.0125,613.0345 -0.567,-4.819 3.714,2.069 m -3.147,2.75 2.863,-5.159 m 2.693,2.126 -0.113,-0.369 0.397,-0.113 0.113,0.369 -0.397,0.113 m 0.85,6.605 -0.595,-0.652 -0.085,-1.021 0.425,-1.36 0.426,-0.737 0.935,-1.106 0.907,-0.454 0.879,0.171 0.482,0.255 0.595,0.68 0.085,0.992 -0.425,1.389 -0.425,0.737 -0.936,1.077 -0.907,0.482 -0.879,-0.17 -0.482,-0.283"
       style="fill:none;stroke:#00ff00;stroke-width:0.85000002;stroke-linecap:butt;stroke-linejoin:miter;stroke-miterlimit:2.5;stroke-dasharray:none;stroke-opacity:1"
       id="path4222"
       inkscape:connector-curvature="0" /><path
       d="m 186.5625,616.6345 1.474,0.765 1.445,0.766 1.474,0.765 1.474,0.737 1.503,0.737 2.948,1.474 1.502,0.709 1.503,0.737 1.474,0.708 1.502,0.681 1.502,0.708 1.503,0.681 1.502,0.708 1.502,0.652 1.531,0.681 1.502,0.68 1.531,0.652 1.503,0.652 1.53,0.652 1.531,0.623 1.531,0.652 3.061,1.248 1.531,0.595 1.531,0.624 1.559,0.595 1.53,0.595 1.559,0.595 1.559,0.567 m -138.614,-22.195 1.191,0.964 0.595,0.453 0.595,0.482 0.624,0.482 0.595,0.454 0.595,0.482 0.596,0.453 0.623,0.482 1.191,0.907 0.623,0.482 0.596,0.454 0.623,0.453 0.596,0.454 0.623,0.482 0.596,0.453 0.623,0.454 0.595,0.453 1.248,0.907 0.595,0.454 1.247,0.907 0.595,0.425 1.871,1.361"
       style="fill:none;stroke:#00ff00;stroke-width:0.79400003;stroke-linecap:butt;stroke-linejoin:miter;stroke-miterlimit:2.5;stroke-dasharray:none;stroke-opacity:1"
       id="path4224"
       inkscape:connector-curvature="0" /><path
       d="m 113.4855,633.9545 -0.114,-4.876 3.515,2.41 m -3.401,2.466 3.344,-4.904 m 2.467,2.381 -0.057,-0.397 0.368,-0.057 0.085,0.397 -0.396,0.057 m 1.615,7.625 -2.324,-1.587 1.219,-2.268 0.056,0.397 0.539,0.708 0.709,0.482 0.85,0.255 0.794,-0.17 0.708,-0.538 0.312,-0.454 0.255,-0.85 -0.141,-0.794 -0.539,-0.709 -0.709,-0.481 -0.85,-0.256 -0.397,0.085 -0.538,0.312"
       style="fill:none;stroke:#00ff00;stroke-width:0.85000002;stroke-linecap:butt;stroke-linejoin:miter;stroke-miterlimit:2.5;stroke-dasharray:none;stroke-opacity:1"
       id="path4226"
       inkscape:connector-curvature="0" /><path
       d="m 126.6375,638.8015 0.624,0.397 0.652,0.425 0.624,0.425 0.651,0.397 0.624,0.425 0.652,0.397 0.652,0.425 0.624,0.397 0.652,0.397 0.652,0.425 1.304,0.794 0.623,0.425 7.172,4.366 0.652,0.368 1.304,0.794 0.68,0.397 0.652,0.368 0.652,0.397 0.652,0.368 0.68,0.397 0.652,0.369 0.652,0.397 0.681,0.368 0.652,0.369 0.652,0.397 0.68,0.368 0.652,0.369 0.68,0.368 0.652,0.369 0.68,0.368 0.652,0.397 0.681,0.368 0.652,0.341 0.68,0.368"
       style="fill:none;stroke:#00ff00;stroke-width:0.79400003;stroke-linecap:butt;stroke-linejoin:miter;stroke-miterlimit:2.5;stroke-dasharray:none;stroke-opacity:1"
       id="path4228"
       inkscape:connector-curvature="0" /><path
       d="m 370.4465,265.9315 -0.142,8.702 -0.397,8.703 -0.68,8.674 -0.964,8.674 -1.219,8.617 -1.502,8.561 -1.786,8.532 -2.013,8.476 -2.296,8.39 -2.579,8.334 -2.807,8.249 -3.09,8.135 -3.316,8.051 -3.6,7.937 -3.827,7.824 -4.082,7.681 -4.308,7.569 -4.536,7.427 -4.79,7.285 -5.018,7.115 -5.216,6.973 -5.442,6.775 -5.669,6.633 -5.84,6.435 -6.066,6.264 -6.264,6.066 -6.435,5.84 -6.633,5.669 -6.775,5.442 -6.973,5.216 -7.115,5.018 -7.285,4.79 -7.427,4.536 -7.569,4.308 -7.681,4.082 -7.824,3.827 -7.937,3.6 -8.051,3.316 -8.135,3.09 -8.249,2.807 -8.334,2.579 -8.39,2.296 -8.476,2.013 -8.532,1.786 -8.561,1.502 -8.617,1.219 -8.674,0.964 -8.674,0.68 -8.703,0.397 -8.702,0.142"
       style="fill:none;stroke:#000000;stroke-width:1.13399994;stroke-linecap:butt;stroke-linejoin:miter;stroke-miterlimit:2.5;stroke-dasharray:5.6693, 5.6693;stroke-dashoffset:0;stroke-opacity:1"
       id="path4230"
       inkscape:connector-curvature="0" /><path
       d="m 373.2805,265.9315 -0.227,1.077 -0.595,0.936 -0.935,0.595 -1.077,0.227 -1.078,-0.227 -0.935,-0.595 -0.595,-0.936 -0.227,-1.077 0.227,-1.077 0.595,-0.936 0.935,-0.595 1.078,-0.227 1.077,0.227 0.935,0.595 0.595,0.936 0.227,1.077"
       style="fill:#cc00ff;fill-opacity:1;fill-rule:nonzero;stroke:none"
       id="path4232"
       inkscape:connector-curvature="0" /><path
       d="m 312.0805,439.3835 -0.198,1.021 -0.567,0.822 -0.851,0.567 -0.992,0.198 -1.02,-0.198 -0.822,-0.567 -0.567,-0.822 -0.199,-1.021 0.199,-0.992 0.567,-0.822 0.822,-0.567 1.02,-0.198 0.992,0.198 0.851,0.567 0.567,0.822 0.198,0.992"
       style="fill:#ff0000;fill-opacity:1;fill-rule:nonzero;stroke:none"
       id="path4238"
       inkscape:connector-curvature="0" /><path
       d="m 309.1325,452.1685 -2.721,-7.115 m 2.721,7.115 2.693,-7.115 m -4.394,2.381 3.373,0"
       style="fill:none;stroke:#ff0000;stroke-width:0.85000002;stroke-linecap:butt;stroke-linejoin:miter;stroke-miterlimit:2.5;stroke-dasharray:none;stroke-opacity:1"
       id="path4240"
       inkscape:connector-curvature="0" /><path
       d="m 247.6775,468.3255 3.061,5.301 -6.123,0 3.062,-5.301"
       style="fill:#ff0000;fill-opacity:1;fill-rule:nonzero;stroke:none"
       id="path4242"
       inkscape:connector-curvature="0" /><path
       d="m 248.1875,484.6245 -1.02,-0.34 -0.681,-0.68 -0.652,-1.332 -0.34,-1.021 -0.34,-1.361 -0.34,-2.04 -0.34,-3.034 m 3.713,9.808 -0.68,-0.34 -0.681,-0.68 -0.652,-1.332 -0.34,-1.021 -0.34,-1.361 -0.34,-2.04 -0.34,-3.034 m 3.373,9.808 0.68,0 0.681,-0.34 0.34,-0.34 0,-0.992 -0.34,-0.68 -0.341,-0.341 -1.02,-0.34 -1.361,0 m 2.041,3.033 0.681,-0.68 0,-0.992 -0.341,-0.68 -0.34,-0.341 -0.68,-0.34 m -1.361,0 1.361,-0.34 0.68,-0.68 0.341,-0.681 0,-1.02 -0.341,-0.68 -0.34,-0.34 -1.02,-0.341 -0.681,0 -0.652,0.341 -0.34,0.34 -0.34,1.02 m 1.332,2.381 1.021,-0.34 0.68,-0.68 0.34,-0.681 0,-1.02 -0.34,-0.68 -0.34,-0.34 -0.68,-0.341"
       style="fill:none;stroke:#ff0000;stroke-width:0.85000002;stroke-linecap:butt;stroke-linejoin:miter;stroke-miterlimit:2.5;stroke-dasharray:none;stroke-opacity:1"
       id="path4244"
       inkscape:connector-curvature="0" /><path
       d="m 265.5075,417.1885 -0.142,0.85 -0.595,0.766 -1.049,0.482 -1.276,0 -1.275,-0.652 0.68,0.198 0.652,0.028 0.595,-0.113 0.511,-0.255 0.368,-0.34 0.227,-0.397 -0.425,0 -0.397,-0.142 -0.312,-0.283 -0.227,-0.369 -0.057,-0.425 -0.255,-0.652 0.142,-0.822 0.624,-0.794 1.02,-0.482 1.276,0.029 1.304,0.652 -0.709,-0.227 -0.652,-0.028 -0.595,0.113 -0.51,0.255 -0.369,0.34 -0.227,0.397 0.425,0 0.397,0.17 0.312,0.255 0.227,0.369 0.057,0.425 0.255,0.652"
       style="fill:#ff0000;fill-opacity:1;fill-rule:nonzero;stroke:none"
       id="path4246"
       inkscape:connector-curvature="0" /><path
       d="m 262.3325,429.3205 0,-7.115 m 0.34,7.115 0,-7.115 m -1.361,7.115 5.075,0 0,-2.041 -0.341,2.041 m -4.734,-7.115 2.382,0"
       style="fill:none;stroke:#ff0000;stroke-width:0.85000002;stroke-linecap:butt;stroke-linejoin:miter;stroke-miterlimit:2.5;stroke-dasharray:none;stroke-opacity:1"
       id="path4248"
       inkscape:connector-curvature="0" /><path
       d="m 337.5645,554.9805 -2.183,0.369 -0.199,0.453 -0.368,0.341 -0.425,0.226 -0.369,2.155 -0.368,-2.155 -0.454,-0.226 -0.34,-0.341 -0.198,-0.453 -2.183,-0.369 2.183,-0.34 0.198,-0.453 0.34,-0.341 0.454,-0.226 0.368,-2.155 0.369,2.155 0.425,0.226 0.368,0.341 0.199,0.453 2.183,0.34"
       style="fill:#ff0000;fill-opacity:1;fill-rule:nonzero;stroke:none"
       id="path4250"
       inkscape:connector-curvature="0" /><path
       d="m 331.4695,567.7655 0,-7.115 m 0,7.115 2.381,0 1.021,-0.341 0.68,-0.652 0.312,-0.68 0.34,-1.02 0,-1.701 -0.34,-1.021 -0.312,-0.68 -0.68,-0.68 -1.021,-0.34 -2.381,0"
       style="fill:none;stroke:#ff0000;stroke-width:0.85000002;stroke-linecap:butt;stroke-linejoin:miter;stroke-miterlimit:2.5;stroke-dasharray:none;stroke-opacity:1"
       id="path4252"
       inkscape:connector-curvature="0" /><path
       d="m 215.2205,518.3855 -0.794,-2.438 -2.579,0 2.069,-1.502 -0.794,-2.466 2.098,1.53 2.069,-1.53 -0.793,2.466 2.097,1.502 -2.579,0 -0.794,2.438"
       style="fill:#ff0000;fill-opacity:1;fill-rule:nonzero;stroke:none"
       id="path4254"
       inkscape:connector-curvature="0" /><path
       d="m 213.0095,527.6265 0,-7.087 m 0,7.087 4.394,0 m -4.394,-3.373 2.721,0 m -2.721,-3.714 4.394,0"
       style="fill:none;stroke:#ff0000;stroke-width:0.85000002;stroke-linecap:butt;stroke-linejoin:miter;stroke-miterlimit:2.5;stroke-dasharray:none;stroke-opacity:1"
       id="path4256"
       inkscape:connector-curvature="0" /><path
       d="m 305.5895,510.3065 3.118,3.884 -3.118,3.912 -3.09,-3.912 3.09,-3.884"
       style="fill:#ff0000;fill-opacity:1;fill-rule:nonzero;stroke:none"
       id="path4258"
       inkscape:connector-curvature="0" /><path
       d="m 303.5765,526.9745 0,-7.115 m 0,7.115 4.394,0 m -4.394,-3.373 2.693,0"
       style="fill:none;stroke:#ff0000;stroke-width:0.85000002;stroke-linecap:butt;stroke-linejoin:miter;stroke-miterlimit:2.5;stroke-dasharray:none;stroke-opacity:1"
       id="path4260"
       inkscape:connector-curvature="0" /><path
       d="m 265.2235,452.8765 6.123,0 -3.061,5.329 -3.062,-5.329"
       style="fill:#ff0000;fill-opacity:1;fill-rule:nonzero;stroke:none"
       id="path4262"
       inkscape:connector-curvature="0" /><path
       d="m 270.4675,465.7465 -0.34,0.68 -0.652,0.68 -0.68,0.34 -1.361,0 -0.68,-0.34 -0.68,-0.68 -0.34,-0.68 -0.341,-1.021 0,-1.672 0.341,-1.021 0.34,-0.68 0.68,-0.68 0.68,-0.341 1.361,0 0.68,0.341 0.652,0.68 0.34,0.68 0,1.021 -1.672,0"
       style="fill:none;stroke:#ff0000;stroke-width:0.85000002;stroke-linecap:butt;stroke-linejoin:miter;stroke-miterlimit:2.5;stroke-dasharray:none;stroke-opacity:1"
       id="path4264"
       inkscape:connector-curvature="0" /><path
       d="m 271.0065,515.2675 0,5.6693 -5.6693,0 0,-5.6693 5.6693,0 z"
       style="fill:#ff0000;fill-opacity:1;fill-rule:nonzero;stroke:none"
       id="path4266"
       inkscape:connector-curvature="0" /><path
       d="m 265.4785,530.8865 0,-7.115 m 4.734,7.115 0,-7.115 m -4.734,3.713 4.734,0"
       style="fill:none;stroke:#ff0000;stroke-width:0.85000002;stroke-linecap:butt;stroke-linejoin:miter;stroke-miterlimit:2.5;stroke-dasharray:none;stroke-opacity:1"
       id="path4268"
       inkscape:connector-curvature="0" /><text
       xml:space="preserve"
       style="font-style:normal;font-weight:normal;font-size:10px;line-height:125%;font-family:sans-serif;letter-spacing:0px;word-spacing:0px;fill:#cc00ff;fill-opacity:1;stroke:none;stroke-width:1px;stroke-linecap:butt;stroke-linejoin:miter;stroke-opacity:1"
       x="334.22211"
       y="-254.31667"
       id="text4462"
       sodipodi:linespacing="125%"
       transform="scale(1,-1)"><tspan
         sodipodi:role="line"
         id="tspan4464"
         x="334.22211"
         y="-254.31667">referenčný bod</tspan></text>
<text
       xml:space="preserve"
       style="font-style:normal;font-weight:normal;font-size:8px;line-height:125%;font-family:sans-serif;letter-spacing:0px;word-spacing:0px;fill:#000000;fill-opacity:1;stroke:none;stroke-width:1px;stroke-linecap:butt;stroke-linejoin:miter;stroke-opacity:1"
       x="191.06342"
       y="-233.95944"
       id="text4466"
       sodipodi:linespacing="125%"
       transform="scale(1,-1)"><tspan
         sodipodi:role="line"
         id="tspan4468"
         x="191.06342"
         y="-233.95944"
         style="font-size:12px">Smerodajná odchýlka (10 mm/deň) </tspan></text>
<text
       xml:space="preserve"
       style="font-style:normal;font-weight:normal;font-size:8px;line-height:125%;font-family:sans-serif;letter-spacing:0px;word-spacing:0px;fill:#000000;fill-opacity:1;stroke:none;stroke-width:1px;stroke-linecap:butt;stroke-linejoin:miter;stroke-opacity:1"
       x="359.5061"
       y="69.786484"
       id="text4466-5"
       sodipodi:linespacing="125%"
       transform="matrix(0,1,1,0,0,0)"><tspan
         sodipodi:role="line"
         id="tspan4468-9"
         x="359.5061"
         y="69.786484"
         style="font-size:12px">Smerodajná odchýlka (10 mm/deň) </tspan></text>
<rect
       style="fill:#ffffff;fill-opacity:1"
       id="rect4488"
       width="24.324474"
       height="23.193104"
       x="358.07889"
       y="-606.98047"
       transform="scale(1,-1)" /><rect
       style="fill:#ffffff;fill-opacity:1"
       id="rect4490"
       width="32.244072"
       height="19.233303"
       x="400.50528"
       y="-562.29132"
       transform="scale(1,-1)" /><rect
       style="fill:#ffffff;fill-opacity:1"
       id="rect4492"
       width="17.536249"
       height="18.66762"
       x="376.74649"
       y="-588.87854"
       transform="scale(1,-1)" /><rect
       style="fill:#ffffff;fill-opacity:1"
       id="rect4494"
       width="18.101933"
       height="21.496046"
       x="391.45432"
       y="-578.69617"
       transform="scale(1,-1)" /><rect
       style="fill:#ffffff;fill-opacity:1"
       id="rect4496"
       width="11.879394"
       height="13.576449"
       x="416.91016"
       y="-549.28052"
       transform="scale(1,-1)" /><text
       xml:space="preserve"
       style="font-style:normal;font-weight:normal;font-size:8px;line-height:125%;font-family:sans-serif;letter-spacing:0px;word-spacing:0px;fill:#0000ff;fill-opacity:1;stroke:none;stroke-width:1px;stroke-linecap:butt;stroke-linejoin:miter;stroke-opacity:1"
       x="-217.70117"
       y="-672.33167"
       id="text4518"
       sodipodi:linespacing="125%"
       transform="matrix(0.6502159,-0.75974948,-0.75974948,-0.6502159,0,0)"><tspan
         sodipodi:role="line"
         id="tspan4520"
         x="-217.70117"
         y="-672.33167"
         style="font-size:12px;fill:#0000ff;fill-opacity:1">Korelačný koeficient</tspan></text>
</g></svg>